<?xml version="1.0" encoding="UTF-8"?>
<svg width="71px" height="38px" viewBox="0 0 71 38" version="1.1" xmlns="http://www.w3.org/2000/svg" xmlns:xlink="http://www.w3.org/1999/xlink">
    <title>Group 20</title>
    <g id="Page-1" stroke="none" stroke-width="1" fill="none" fill-rule="evenodd">
        <g id="homepage" transform="translate(-740.000000, -1190.000000)" fill-rule="nonzero">
            <g id="8-services" transform="translate(0.000000, 666.000000)">
                <g id="Group-4" transform="translate(123.000000, 487.000000)">
                    <g id="Group-18" transform="translate(601.000000, 0.000000)">
                        <g id="Group-20" transform="translate(16.000000, 38.000000)">
                            <g id="Group-5" transform="translate(0.000000, 9.767442)" stroke="#4B4C4C">
                                <g id="Group" transform="translate(0.000000, 19.941860)" fill="#FFFFFF">
                                    <rect id="Rectangle" x="2.60465116" y="0.813953488" width="1.22093023" height="4.72093023"></rect>
                                    <rect id="Rectangle" x="5.61627907" y="0.813953488" width="1.22093023" height="4.72093023"></rect>
                                    <rect id="Rectangle" x="8.95348837" y="0.813953488" width="1.22093023" height="4.72093023"></rect>
                                    <rect id="Rectangle" x="12.8604651" y="0.813953488" width="1.22093023" height="4.72093023"></rect>
                                    <rect id="Rectangle" x="17.0930233" y="0.813953488" width="1.22093023" height="4.72093023"></rect>
                                    <rect id="Rectangle" x="21" y="0.813953488" width="1.22093023" height="4.72093023"></rect>
                                    <rect id="Rectangle" x="24.4186047" y="0.813953488" width="1.22093023" height="4.72093023"></rect>
                                    <rect id="Rectangle" x="28.3255814" y="0.813953488" width="1.22093023" height="4.72093023"></rect>
                                    <rect id="Rectangle" x="31.6627907" y="0.813953488" width="1.22093023" height="4.72093023"></rect>
                                    <rect id="Rectangle" x="0.569767442" y="4.63953488" width="35" height="1.62790698"></rect>
                                    <rect id="Rectangle" x="0.569767442" y="0.569767442" width="35" height="1.62790698"></rect>
                                </g>
                                <rect id="Rectangle" fill="#EAEAEA" x="1.30232558" y="8.95348837" width="14.9767442" height="11.5581395"></rect>
                                <rect id="Rectangle" fill="#FFFFFF" x="16.2790698" y="9.84883721" width="13.755814" height="10.6627907"></rect>
                                <rect id="Rectangle" fill="#FFFFFF" x="30.0348837" y="11.4767442" width="5.12790698" height="9.03488372"></rect>
                                <rect id="Rectangle" fill="#FFFFFF" x="3.3372093" y="3.68697321e-14" width="13.0232558" height="8.87209302"></rect>
                                <rect id="Rectangle" fill="#F5F6F7" x="16.1162791" y="0.895348837" width="12.4534884" height="9.03488372"></rect>
                            </g>
                            <g id="Group" transform="translate(35.813953, 0.000000)">
                                <g transform="translate(0.000000, 12.887597)" id="Rectangle">
                                    <rect fill="#4B4C4C" x="32.3546512" y="2.57751938" width="1.28875969" height="20.8914729"></rect>
                                    <rect fill="#4B4C4C" x="0.746124031" y="2.57751938" width="1.28875969" height="20.8914729"></rect>
                                    <rect stroke="#4B4C4C" fill="#FFFFFF" x="0" y="0" width="34.1860465" height="2.37403101"></rect>
                                </g>
                                <path d="M23.4689922,10.4457364 L9.97093023,10.4457364 C8.95348837,10.4457364 8.13953488,9.63178295 8.13953488,8.61434109 L8.13953488,1.83139535 C8.13953488,0.813953488 8.95348837,0 9.97093023,0 L23.4689922,0 C24.4864341,0 25.3003876,0.813953488 25.3003876,1.83139535 L25.3003876,8.61434109 C25.3003876,9.63178295 24.4864341,10.4457364 23.4689922,10.4457364 Z" id="Path" stroke="#4B4C4C" fill="#FFFFFF"></path>
                                <path d="M23.4237726,9.6996124 L10.7622739,9.6996124 C9.75739305,9.6996124 8.95348837,8.88565891 8.95348837,7.86821705 L8.95348837,2.64534884 C8.95348837,1.62790698 9.75739305,0.813953488 10.7622739,0.813953488 L23.4237726,0.813953488 C24.4286535,0.813953488 25.2325581,1.62790698 25.2325581,2.64534884 L25.2325581,7.86821705 C25.1655661,8.88565891 24.3616614,9.6996124 23.4237726,9.6996124 Z" id="Path" fill="#4B4C4C"></path>
                                <g transform="translate(9.496124, 7.461240)">
                                    <rect id="Rectangle" fill="#4B4C4C" x="4.88372093" y="14.0406977" width="2.10271318" height="10.4457364"></rect>
                                    <path d="M11.7344961,15.6007752 L11.7344961,6.37596899 C11.7344961,3.1879845 9.15697674,0.542635659 5.90116279,0.542635659 L5.90116279,0.542635659 C2.71317829,0.542635659 0.0678294574,3.12015504 0.0678294574,6.37596899 L0.0678294574,15.6007752 C0.0678294574,15.5329457 5.90116279,17.6356589 11.7344961,15.6007752 Z" id="Path" stroke="#4B4C4C" fill="#32C5FF"></path>
                                    <polygon id="Path" stroke="#4B4C4C" fill="#32C5FF" points="9.83527132 28.1492248 1.49224806 28.1492248 4.6124031 24.3507752 7.18992248 24.3507752"></polygon>
                                </g>
                                <path d="M23.4689922,13.9728682 L23.1976744,13.8372093 C22.9263566,13.7015504 22.7906977,13.2945736 23.129845,12.8875969 L23.6724806,12.2771318 C23.9437984,11.9379845 24.3507752,11.5310078 24.8255814,11.6666667 L25.0968992,11.7344961 C25.5717054,11.870155 25.503876,12.2093023 25.3003876,12.5484496 L24.7577519,13.2267442 C24.5542636,13.7015504 24.1472868,14.1085271 23.4689922,13.9728682 Z" id="Path" stroke="#4B4C4C" fill="#FFFFFF"></path>
                            </g>
                        </g>
                    </g>
                </g>
            </g>
        </g>
    </g>
</svg>