<?xml version="1.0" encoding="UTF-8"?>
<svg width="86px" height="52px" viewBox="0 0 86 52" version="1.1" xmlns="http://www.w3.org/2000/svg" xmlns:xlink="http://www.w3.org/1999/xlink">
    <title>graphic/retail-&amp;-ecommerce</title>
    <g id="graphic/retail-&amp;-ecommerce" stroke="none" stroke-width="1" fill="none" fill-rule="evenodd">
        <g id="Group-7">
            <g id="Group-6" transform="translate(59.000000, 6.000000)" stroke="#4B4C4C">
                <path d="M4,0 L17.3412614,0 C18.7100232,-4.24824034e-15 19.9837481,0.69988291 20.7176596,1.8552541 L23.2258065,5.80374163 L23.2258065,5.80374163 L23.2258065,22 C23.2258065,24.209139 21.4349455,26 19.2258065,26 L4,26 C1.790861,26 2.705415e-16,24.209139 0,22 L0,4 C-2.705415e-16,1.790861 1.790861,4.05812251e-16 4,0 Z" id="Rectangle" fill="#D8D8D8"></path>
                <line x1="8.71728111" y1="0.489889706" x2="10.6914747" y2="4.834375" id="Line-2" stroke-linecap="square"></line>
                <rect id="Rectangle-Copy-13" fill="#FFFFFF" x="0.774193548" y="4.58823529" width="23.2258065" height="21.4117647" rx="4"></rect>
            </g>
            <g id="setup">
                <rect id="Rectangle" fill="#FFFFFF" x="0" y="0" width="66" height="52" rx="6"></rect>
                <path d="M5,6 C5.26266667,6 5.52133333,5.89333333 5.70666667,5.70666667 C5.89333333,5.52133333 6,5.264 6,5 C6,4.73733333 5.89333333,4.47866667 5.70666667,4.29333333 C5.52133333,4.10666667 5.26266667,4 5,4 C4.73733333,4 4.47866667,4.10666667 4.29333333,4.29333333 C4.10666667,4.47866667 4,4.73733333 4,5 C4,5.26266667 4.10666667,5.52133333 4.29333333,5.70666667 C4.47866667,5.89333333 4.73733333,6 5,6 Z" id="Path" fill="#4B4C4C" fill-rule="nonzero"></path>
                <path d="M8,6 C8.26266667,6 8.52133333,5.89333333 8.70666667,5.70666667 C8.89333333,5.52133333 9,5.26266667 9,5 C9,4.73733333 8.89333333,4.47866667 8.70666667,4.29333333 C8.52133333,4.10666667 8.26266667,4 8,4 C7.73733333,4 7.47866667,4.10666667 7.29333333,4.29333333 C7.10666667,4.47866667 7,4.73733333 7,5 C7,5.26266667 7.10666667,5.52133333 7.29333333,5.70666667 C7.47866667,5.89333333 7.73733333,6 8,6 Z" id="Path" fill="#4B4C4C" fill-rule="nonzero"></path>
                <path d="M11,6 C11.2626667,6 11.5213333,5.89333333 11.7066667,5.70666667 C11.8933333,5.52133333 12,5.26266667 12,5 C12,4.73733333 11.8933333,4.47866667 11.7066667,4.29333333 C11.5213333,4.10666667 11.2626667,4 11,4 C10.736,4 10.4786667,4.10666667 10.2933333,4.29333333 C10.1066667,4.47866667 10,4.73733333 10,5 C10,5.26266667 10.1066667,5.52133333 10.2933333,5.70666667 C10.4786667,5.89333333 10.7373333,6 11,6 Z" id="Path" fill="#4B4C4C" fill-rule="nonzero"></path>
                <path d="M16.4515593,5.5652381 L45.7590575,5.5652381 C46.1583722,5.5652381 46.4821044,5.25480965 46.4821044,4.87190476 C46.4821044,4.48899987 46.1583722,4.17857143 45.7590575,4.17857143 L16.4515593,4.17857143 C16.0522446,4.17857143 15.7285124,4.48899987 15.7285124,4.87190476 C15.7285124,5.25480965 16.0522446,5.5652381 16.4515593,5.5652381 Z" id="Path" fill="#4B4C4C" fill-rule="nonzero"></path>
                <path d="M38.4452783,20.1066667 L56.0862283,20.1066667 C56.3265862,20.1066667 56.5214491,19.7962382 56.5214491,19.4133333 C56.5214491,19.0304284 56.3265862,18.72 56.0862283,18.72 L38.4452783,18.72 C38.2049203,18.72 38.0100575,19.0304284 38.0100575,19.4133333 C38.0100575,19.7962382 38.2049203,20.1066667 38.4452783,20.1066667 Z" id="Path" fill="#4B4C4C" fill-rule="nonzero"></path>
                <path d="M38.3364731,23.5733333 L51.5671856,23.5733333 C51.747454,23.5733333 51.8936012,23.4181191 51.8936012,23.2266667 C51.8936012,23.0352142 51.747454,22.88 51.5671856,22.88 L38.3364731,22.88 C38.1562046,22.88 38.0100575,23.0352142 38.0100575,23.2266667 C38.0100575,23.4181191 38.1562046,23.5733333 38.3364731,23.5733333 Z" id="Path-Copy" fill="#4B4C4C" fill-rule="nonzero"></path>
                <path d="M38.3364731,26.3466667 L51.5671856,26.3466667 C51.747454,26.3466667 51.8936012,26.1914524 51.8936012,26 C51.8936012,25.8085476 51.747454,25.6533333 51.5671856,25.6533333 L38.3364731,25.6533333 C38.1562046,25.6533333 38.0100575,25.8085476 38.0100575,26 C38.0100575,26.1914524 38.1562046,26.3466667 38.3364731,26.3466667 Z" id="Path-Copy-2" fill="#4B4C4C" fill-rule="nonzero"></path>
                <path d="M38.3364731,29.12 L51.5671856,29.12 C51.747454,29.12 51.8936012,28.9647858 51.8936012,28.7733333 C51.8936012,28.5818809 51.747454,28.4266667 51.5671856,28.4266667 L38.3364731,28.4266667 C38.1562046,28.4266667 38.0100575,28.5818809 38.0100575,28.7733333 C38.0100575,28.9647858 38.1562046,29.12 38.3364731,29.12 Z" id="Path-Copy-3" fill="#4B4C4C" fill-rule="nonzero"></path>
                <path d="M57.7258065,6 L59.2741935,6 C59.6750323,6 60,5.55226667 60,5 C60,4.44773333 59.6750323,4 59.2741935,4 L57.7258065,4 C57.3249677,4 57,4.44773333 57,5 C57,5.55226667 57.3249677,6 57.7258065,6 Z" id="Path" fill="#4B4C4C" fill-rule="nonzero"></path>
                <path d="M60.8982387,0 L5.10176125,0 C2.28868885,0 0,2.30937343 0,5.14786967 L0,46.8521303 C0,49.6906266 2.28868885,52 5.10176125,52 L60.8982387,52 C63.7113112,52 66,49.6906266 66,46.8521303 L66,5.14786967 C66,2.30937343 63.7113112,0 60.8982387,0 Z M5.10176125,1.26155388 L60.8982387,1.26155388 C62.6430411,1.26155388 64.7518531,3.38729825 64.7518531,5.14786967 L64.7518531,8.34085213 L1.24814692,8.34085213 L1.24814692,5.14786967 C1.24814692,3.38729825 3.3569589,1.26155388 5.10176125,1.26155388 Z M60.8982387,50.7384461 L5.10176125,50.7384461 C3.3569589,50.7384461 1.24814692,48.6127018 1.24814692,46.8521303 L1.24814692,9.60240602 L64.7518531,9.60240602 L64.7518531,46.8521303 C64.7518531,48.6127018 62.6430411,50.7384461 60.8982387,50.7384461 Z" id="Shape" fill="#4B4C4C" fill-rule="nonzero"></path>
            </g>
            <rect id="Rectangle" fill="#32C5FF" x="39" y="33" width="14" height="5" rx="2.5"></rect>
            <g id="Hand-Hover" transform="translate(52.397709, 39.836062) rotate(-13.000000) translate(-52.397709, -39.836062) translate(48.397709, 33.836062)" fill-rule="nonzero">
                <path d="M6.38014578,5.22049248 C6.32574058,5.22049248 6.18765564,5.23938405 6.04569416,5.28391417 C6.00946859,4.79637682 5.6047046,4.41085393 5.11265168,4.41085393 C4.89115435,4.41085393 4.68730194,4.48898405 4.52689349,4.61933585 C4.40832491,4.25391899 4.09486007,4.00603465 3.70667162,4.00603465 C3.44961708,4.00603465 3.22090137,4.112772 3.05781944,4.28711417 L2.9690601,1.77952863 C2.9690601,1.20252622 2.56656856,0.767480432 2.03280945,0.767480432 C1.49905033,0.767480432 1.0965588,1.20252622 1.0965588,1.7838467 L1.18825896,6.10529248 C1.08025061,6.16453103 0.916366639,6.27288766 0.706632591,6.46517682 C-0.0190819694,7.13096959 -0.256620149,8.74134067 0.562933355,9.98777923 C1.47525641,11.3752298 2.54424506,11.9674804 4.13763566,11.9674804 C5.82580091,11.9674804 6.39057233,11.1122322 6.82447719,10.2362033 C7.2418065,9.39363947 7.24661879,6.16695995 7.24661879,6.03013103 C7.24675243,5.59872863 6.84185477,5.22049248 6.38014578,5.22049248 Z" id="Shape" fill="#FFFFFF"></path>
                <path d="M6.38014578,5.22049248 C6.32574058,5.22049248 6.18765564,5.23938405 6.04569416,5.28391417 C6.00946859,4.79637682 5.6047046,4.41085393 5.11265168,4.41085393 C4.89115435,4.41085393 4.68730194,4.48898405 4.52689349,4.61933585 C4.40832491,4.25391899 4.09486007,4.00603465 3.70667162,4.00603465 C3.44961708,4.00603465 3.22090137,4.112772 3.05781944,4.28711417 L2.9690601,1.77952863 C2.9690601,1.20252622 2.56656856,0.767480432 2.03280945,0.767480432 C1.49905033,0.767480432 1.0965588,1.20252622 1.0965588,1.7838467 L1.18825896,6.10529248 C1.08025061,6.16453103 0.916366639,6.27288766 0.706632591,6.46517682 C-0.0190819694,7.13096959 -0.256620149,8.74134067 0.562933355,9.98777923 C1.47525641,11.3752298 2.54424506,11.9674804 4.13763566,11.9674804 C5.82580091,11.9674804 6.39057233,11.1122322 6.82447719,10.2362033 C7.2418065,9.39363947 7.24661879,6.16695995 7.24661879,6.03013103 C7.24675243,5.59872863 6.84185477,5.22049248 6.38014578,5.22049248 Z M6.46583063,10.0551142 C6.05732378,10.879866 5.60029337,11.5626612 4.13776933,11.5626612 C2.67591366,11.5626612 1.73712321,11.0415238 0.897251299,9.76391417 C0.407871854,9.01958646 0.195464332,7.4812732 0.976519808,6.76460814 C1.06086792,6.68728766 1.13532417,6.62669971 1.19841816,6.57960573 L1.22836107,7.99094067 C1.23090087,8.10267079 1.32353675,8.19254067 1.43314919,8.18903224 C1.54383102,8.18660332 1.63165465,8.09416959 1.6293822,7.98230453 L1.49784727,1.77952863 C1.49784727,1.4220732 1.71787419,1.17229971 2.0330768,1.17229971 C2.3482794,1.17229971 2.56830632,1.4220732 2.56844,1.78681537 L2.7021137,5.56512863 C2.70572289,5.66903224 2.78672916,5.75309971 2.8892569,5.7598467 C2.99084891,5.76672863 3.0829501,5.6939961 3.10019401,5.59157682 L3.20165235,4.9843479 C3.20352378,4.9731479 3.2044595,4.9619479 3.2044595,4.95061296 C3.2044595,4.64295031 3.42047621,4.41085393 3.70693897,4.41085393 C4.03002832,4.41085393 4.17720307,4.69058405 4.17720307,4.95061296 L4.17720307,5.35543224 C4.17720307,5.46716236 4.2670318,5.55784188 4.37771363,5.55784188 C4.48839546,5.55784188 4.5782242,5.46716236 4.5782242,5.35543224 C4.5782242,5.05775513 4.81803483,4.8156732 5.11291903,4.8156732 C5.40780323,4.8156732 5.64761386,5.05775513 5.64761386,5.35543224 L5.64761386,6.23254067 C5.64761386,6.34427079 5.73744259,6.43495031 5.84812442,6.43495031 C5.95880625,6.43495031 6.04863498,6.34427079 6.04863498,6.23254067 L6.04863498,5.71707079 C6.12883921,5.67766838 6.28603949,5.62531176 6.38041313,5.62531176 C6.61968907,5.62531176 6.84586498,5.82191899 6.84586498,6.03013103 C6.84573131,6.93638646 6.77729037,9.42629489 6.46583063,10.0551142 Z" id="Shape-Copy" stroke="#4B4C4C"></path>
            </g>
            <g id="tshirt" transform="translate(7.172414, 16.137931)" fill-rule="nonzero">
                <path d="M20.3445275,13.9120095 L4.75886734,13.9120095 L0.597461268,11.5195343 C0.476550167,11.4500219 0.430453144,11.2977618 0.492272354,11.1722413 L4.15377706,3.7404391 C4.19901846,3.64859879 4.26853833,3.57106985 4.35474297,3.51635304 L8.8637484,0.653485446 C9.23493104,0.417831914 9.70477842,0.399377768 10.0900255,0.610981726 C11.9027294,1.6067524 13.5613666,1.61982633 15.070643,0.680440336 C15.4650881,0.434941006 15.9658985,0.443818365 16.3568141,0.694859319 L20.7504166,3.51651445 C20.8354982,3.57112366 20.904109,3.64811457 20.948976,3.73909405 L24.6111759,11.1722951 C24.6729951,11.2978156 24.6268981,11.4500757 24.505987,11.5195881 L20.3445275,13.9120095 Z" id="Path" fill="#F5F5F5"></path>
                <path d="M7.90293742,0.927467301 L4.25466882,3.25802145 C4.1707329,3.31165742 4.10300063,3.3876549 4.05887045,3.47768106 L0.491567966,10.7626801 C0.431338345,10.8857211 0.476250052,11.0349736 0.594052105,11.1031129 L4.64850593,13.4482759 L7.90293742,13.4482759 L7.90293742,0.927467301 L7.90293742,0.927467301 Z" id="Path" fill="#F5F5F5"></path>
                <path d="M16.0945486,0.690147384 C15.7066127,0.444191587 15.2095665,0.435548615 14.8181811,0.676023503 C13.3204089,1.59618382 11.6744143,1.58343017 9.87552742,0.607986448 C9.49326993,0.400713222 9.02695081,0.418736981 8.65859744,0.649620277 L4.18390805,3.45389581 L4.62188821,8.96162975 L4.62188821,13.6367398 L4.62188821,26.1959269 C4.62188821,26.3267836 4.72866346,26.4328181 4.8604343,26.4328181 L19.7764371,26.4328181 C19.9081549,26.4328181 20.0149832,26.3267836 20.0149832,26.1959269 L20.0149832,13.6367398 L20.0149832,8.96162975 L20.4546616,3.45400121 L16.0945486,0.690147384 Z" id="Path" fill="#FFFFFF"></path>
                <path d="M16.2818585,23.5649149 C11.0929049,23.5649149 6.88644719,19.3623411 6.88644719,14.1781787 L6.88644719,10.7118362 L6.88644719,6.01590078 L6.55762396,1.8549346 L4.18390805,3.35153574 L4.62119102,8.883804 L4.62119102,13.5797394 L4.62119102,26.4328181 L19.9897829,26.4328181 L19.9897829,23.5649149 L16.2818585,23.5649149 Z" id="Path" fill="#F5F5F5"></path>
                <path d="M9.29757344,0.463891014 C9.49958494,0.460498596 9.7026541,0.511950262 9.8861567,0.618811415 C11.6783478,1.66537223 13.3187658,1.6789419 14.8111126,0.691748392 C14.9724045,0.58488724 15.1516765,0.523823724 15.3341214,0.507992442 L15.3409962,0.589975866 C15.2859983,2.32293583 13.9549434,3.7098692 12.3203425,3.7098692 C11.4969605,3.7098692 10.7502583,3.35762318 10.2050387,2.78656623 C9.66034802,2.21550927 9.31661117,1.42564139 9.29863109,0.549832258 L9.29757344,0.463891014 Z" id="Path" fill="#F5F5F5"></path>
                <path d="M16.0898418,0.699968065 L16.7356322,1.12683816 C16.4302338,3.36996634 14.5649705,5.10107015 12.3174291,5.10107015 C10.0783709,5.10107015 8.21947015,3.38315151 7.90293742,1.15320851 L8.6611314,0.657665624 C8.85200541,0.532955828 9.06885949,0.467579327 9.28677398,0.46373365 L9.2878344,0.547239769 C9.30586139,1.39823305 9.65049501,2.1657202 10.1966068,2.72059639 C10.7432487,3.27547257 11.491899,3.61773778 12.3174291,3.61773778 C13.9562945,3.61773778 15.290822,2.27010285 15.3459634,0.586245917 L15.3390707,0.506585475 C15.597811,0.484060798 15.8623836,0.549437299 16.0898418,0.699968065 L16.0898418,0.699968065 Z" id="Path" fill="#32C5FF"></path>
                <path d="M25.0340764,10.7638627 L21.353186,3.4455962 C21.2755703,3.29129269 21.1566741,3.16072003 21.0093439,3.06802139 L16.5931999,0.289975505 C16.0699922,-0.0391841311 15.394133,-0.045911404 14.8714628,0.272813014 C13.4665314,1.12934847 11.9615701,1.10349879 10.2706321,0.193568917 C9.75699197,-0.082831949 9.12827197,-0.0619615118 8.62978951,0.248075719 L7.86809069,0.721792267 C7.86717693,0.722321973 7.86637067,0.722904651 7.86545691,0.723434357 L4.0975982,3.0667501 C3.94833296,3.15960765 3.82798552,3.29108081 3.74961724,3.44692047 L0.0693718933,10.7638627 C-0.0873646652,11.0754361 0.029919001,11.454653 0.336243297,11.6271784 L4.35323574,13.8892901 L4.35323574,26.2611687 C4.35323574,26.6115166 4.64246737,26.8965517 4.9979734,26.8965517 L20.1054749,26.8965517 C20.4609809,26.8965517 20.7502125,26.6115166 20.7502125,26.2611687 L20.7502125,22.0199145 C20.7502125,21.8005101 20.5697182,21.6226346 20.3470835,21.6226346 C20.1244488,21.6226346 19.9439545,21.8005101 19.9439545,22.0199145 L19.9439545,26.1019919 L5.15949376,26.1019919 L5.15949376,8.9386529 C5.15949376,8.71924845 4.97899946,8.541373 4.75636475,8.541373 C4.53373004,8.541373 4.35323574,8.71924845 4.35323574,8.9386529 L4.35323574,12.9741691 L0.849829654,11.0012771 L4.47202442,3.79975799 C4.48460205,3.77470287 4.50395224,3.75356758 4.52792498,3.73868283 L7.80299879,1.70180231 C7.98763188,2.35922109 8.31260761,2.97474007 8.76034956,3.50640651 C8.84006161,3.60111804 8.95498025,3.64995698 9.0707589,3.64995698 C9.1614898,3.64995698 9.25275821,3.61997559 9.32800896,3.55837072 C9.49936566,3.41821038 9.52296215,3.16776513 9.38079198,2.99894766 C8.95320648,2.49117098 8.65913731,1.89260261 8.52142844,1.25499486 L9.06000879,0.92000845 C9.07677896,0.909573231 9.09392538,0.899879602 9.11123305,0.890768649 C9.21696035,1.635589 9.56633883,2.32277728 10.1198081,2.85709225 C10.7731996,3.48791976 11.6369169,3.83535427 12.551751,3.83535427 C13.4591138,3.83535427 14.3177248,3.49279306 14.9693963,2.87081165 C15.5330244,2.3328417 15.8893367,1.63595979 15.9942577,0.880174519 C16.0514483,0.900356337 16.1069726,0.926682752 16.1594331,0.959683469 L16.5870186,1.22866844 C16.197811,3.09365919 14.5069267,4.47094913 12.551751,4.47094913 C11.8362239,4.47094913 11.1300494,4.28555185 10.509607,3.93488612 C10.3164275,3.82571361 10.0700888,3.89150316 9.95936274,4.08182671 C9.84858288,4.27215027 9.9153948,4.51496774 10.1084667,4.62408729 C10.8508691,5.04366783 11.69572,5.26545595 12.551751,5.26545595 C14.7859995,5.26545595 16.7316076,3.7609305 17.3058783,1.68082594 L20.5755233,3.73762341 C20.5991735,3.75256114 20.6183087,3.77353752 20.6307788,3.79832778 L24.2536186,11.0011712 L20.7502125,12.9740632 L20.7502125,8.93854696 C20.7502125,8.71914251 20.5697182,8.54126706 20.3470835,8.54126706 C20.1244488,8.54126706 19.9439545,8.71914251 19.9439545,8.93854696 L19.9439545,20.4307949 C19.9439545,20.6501994 20.1244488,20.8280748 20.3470835,20.8280748 C20.5697182,20.8280748 20.7502125,20.6501994 20.7502125,20.4307949 L20.7502125,13.8892901 L24.767205,11.6271784 C25.0735293,11.454653 25.1908129,11.0754361 25.0340764,10.7638627 Z M12.5516973,3.04079448 C11.849124,3.04079448 11.1857887,2.7739813 10.6839737,2.28951171 C10.2929923,1.91198986 10.0346672,1.43525399 9.93248747,0.916141592 C11.796341,1.90372644 13.5489309,1.94446087 15.1452143,1.03691468 C14.861949,2.19527692 13.8112335,3.04079448 12.5516973,3.04079448 L12.5516973,3.04079448 Z" id="Shape" fill="#4B4C4C"></path>
            </g>
            <g id="tote-bag" transform="translate(77.500000, 35.000000) scale(-1, 1) translate(-77.500000, -35.000000) translate(69.000000, 23.000000)" fill-rule="nonzero">
                <path d="M14.4814815,5.40540045 L14.4814815,7.78378378 L13.0123457,7.78378378 L13.0123457,5.40540243 C13.0123457,3.6540146 11.6968379,2.23423423 10.0740768,2.23423423 L10.0740713,2.23423423 C9.29479397,2.23423423 8.54743379,2.5683385 7.99640149,3.1630479 C7.44536919,3.75775729 7.13580247,4.56435633 7.13580247,5.40540243 L7.13580247,7.78378378 L5.66666667,7.78378378 L5.66666667,5.40540045 C5.66666667,2.77831897 7.63992812,0.648648649 10.0740695,0.648648649 L10.0740787,0.648648649 C12.50822,0.648648649 14.4814815,2.77831897 14.4814815,5.40540045 Z" id="Path" fill="#FFFFFF"></path>
                <rect id="Rectangle" fill="#FFFFFF" x="0.62962963" y="6.48648649" width="13.2222222" height="16.8648649"></rect>
                <rect id="Rectangle" fill="#F5F6F7" x="13.8518519" y="6.48648649" width="3.14814815" height="16.8648649"></rect>
                <path d="M11.3333333,5.31891405 L11.3333333,8.43243243 L9.86419753,8.43243243 L9.86419753,5.318916 C9.86419753,3.59937158 8.54868976,2.20540541 6.92592868,2.20540541 L6.92592317,2.20540541 C5.30316209,2.20540541 3.98765432,3.59937158 3.98765432,5.318916 L3.98765432,8.43243243 L2.51851852,8.43243243 L2.51851852,5.31891405 C2.51851852,2.73959769 4.49177997,0.648648649 6.92592133,0.648648649 L6.92593052,0.648648649 C9.36007188,0.648648649 11.3333333,2.73959769 11.3333333,5.31891405 Z" id="Path" fill="#FFFFFF"></path>
                <polygon id="Path" fill="#E9CEBE" points="13.8518519 23.3513514 15.4259259 20.7567568 17 23.3513514"></polygon>
                <path d="M16.6304348,6.40002926 L14.7826087,6.40002926 L14.7826087,5.20003125 C14.7824253,3.53678146 14.047238,1.9739606 12.8046486,0.995392551 C11.5620592,0.0168244986 9.961984,-0.259428316 8.49978011,0.252157475 C7.03762397,-0.259433525 5.43758926,0.0168307305 4.19506555,0.99541558 C2.95254183,1.97400043 2.21745304,3.53682902 2.2173913,5.20003125 L2.2173913,6.40002926 L0.369565217,6.40002926 C0.271549564,6.40002621 0.177547567,6.44216789 0.108240034,6.51718298 C0.0389325006,6.59219807 0,6.69394124 0,6.80002859 L0,23.6000007 C0,23.706088 0.0389325006,23.8078312 0.108240034,23.8828463 C0.177547567,23.9578614 0.271549564,24 0.369565217,24 L16.6304348,24 C16.7284504,24 16.8224524,23.9578614 16.89176,23.8828463 C16.9610675,23.8078312 17,23.706088 17,23.6000007 L17,6.80002859 C17,6.69394124 16.9610675,6.59219807 16.89176,6.51718298 C16.8224524,6.44216789 16.7284504,6.40002621 16.6304348,6.40002926 Z M16.2608696,22.2789089 L15.5217391,21.0789109 L15.5217391,8.0000266 L14.7826087,8.0000266 L14.7826087,21.0789109 L14.0434783,22.2789089 L14.0434783,7.20002793 L16.2608696,7.20002793 L16.2608696,22.2789089 Z M11.2700331,2.77396428 C12.0707864,3.27458786 12.5643688,4.19913893 12.5652174,5.20003125 L12.5652174,6.40002926 L11.826087,6.40002926 L11.826087,5.20003125 C11.8269536,4.35427655 11.6360169,3.52121828 11.2700331,2.77396428 L11.2700331,2.77396428 Z M15.1521739,21.9211215 L15.9399022,23.2000013 L14.3644457,23.2000013 L15.1521739,21.9211215 Z M9.97826087,0.800038565 C12.2223676,0.802782169 14.0409434,2.77111974 14.0434783,5.20003125 L14.0434783,6.40002926 L13.3043478,6.40002926 L13.3043478,5.20003125 C13.3030116,3.44210675 12.1299635,1.94176437 10.5283878,1.64954565 C10.2541844,1.3322773 9.94458477,1.05315653 9.60671894,0.818611534 C9.72977446,0.806566054 9.85365041,0.800038565 9.97826087,0.800038565 Z M2.95652174,5.20003125 C2.95652174,2.76998239 4.77658156,0.800038565 7.02173913,0.800038565 C9.2668967,0.800038565 11.0869565,2.76998239 11.0869565,5.20003125 L11.0869565,8.0000266 L10.3478261,8.0000266 L10.3478261,5.20003125 C10.3478261,3.21180946 8.85868623,1.60003723 7.02173913,1.60003723 C5.18479203,1.60003723 3.69565217,3.21180946 3.69565217,5.20003125 L3.69565217,8.0000266 L2.95652174,8.0000266 L2.95652174,5.20003125 Z M5.17391304,6.40002926 L4.43478261,6.40002926 L4.43478261,5.20003125 C4.43548785,4.20041514 4.92832971,3.27696754 5.72801003,2.77688528 C5.36413793,3.52386887 5.1739511,4.35558328 5.17391304,5.20003125 L5.17391304,6.40002926 Z M5.91304337,5.20003125 C5.91282413,4.18153932 6.23949571,3.19459377 6.83720182,2.40794889 C6.89823136,2.4032649 6.95962723,2.40003589 7.02173913,2.40003589 C7.27226129,2.40003589 7.52144939,2.43950539 7.7614447,2.51728121 C7.05721418,3.20103794 6.65405709,4.17606562 6.65217391,5.20003125 L6.65217391,6.40003589 L5.91304337,6.40003589 L5.91304337,5.20003125 Z M7.39130435,5.20003125 C7.39314099,4.28499279 7.80630546,3.42816981 8.49880723,2.90328507 C9.19380485,3.42608347 9.60837269,4.2839689 9.60869565,5.20003125 L9.60869565,6.40002926 L7.39130435,6.40002926 L7.39130435,5.20003125 Z M0.739130435,7.20002793 L2.2173913,7.20002793 L2.2173913,8.40002593 C2.21738849,8.50611329 2.2563238,8.60785645 2.32563134,8.68287154 C2.39493887,8.75788663 2.48894087,8.80002832 2.58695652,8.80002527 L4.06521739,8.80002527 C4.16323304,8.80002832 4.25723504,8.75788663 4.32654257,8.68287154 C4.39585011,8.60785645 4.43478543,8.50611329 4.43478261,8.40002593 L4.43478261,7.20002793 L9.60869565,7.20002793 L9.60869565,8.40002593 C9.60869283,8.50611329 9.64762815,8.60785645 9.71693569,8.68287154 C9.78624322,8.75788663 9.88024522,8.80002832 9.97826087,8.80002527 L11.4565217,8.80002527 C11.5545374,8.80002832 11.6485394,8.75788663 11.7178469,8.68287154 C11.7871545,8.60785645 11.8260898,8.50611329 11.826087,8.40002593 L11.826087,7.20002793 L13.3043478,7.20002793 L13.3043478,23.2000013 L0.739130435,23.2000013 L0.739130435,7.20002793 Z" id="Shape" fill="#4B4C4C"></path>
            </g>
        </g>
    </g>
</svg>