<?xml version="1.0" encoding="UTF-8"?>
<svg width="66px" height="60px" viewBox="0 0 66 60" version="1.1" xmlns="http://www.w3.org/2000/svg" xmlns:xlink="http://www.w3.org/1999/xlink">
    <title>Group</title>
    <g id="Page-1" stroke="none" stroke-width="1" fill="none" fill-rule="evenodd">
        <g id="homepage" transform="translate(-137.000000, -917.000000)">
            <g id="8-services" transform="translate(0.000000, 666.000000)">
                <g id="Group-4" transform="translate(122.000000, 235.000000)">
                    <g id="Group" transform="translate(16.000000, 16.000000)">
                        <g transform="translate(7.838590, 5.225727)">
                            <rect id="Rectangle" fill="#4B4C4C" fill-rule="nonzero" x="38.8010204" y="17.1142548" width="1.11046691" height="14.566713"></rect>
                            <rect id="Rectangle" fill="#4B4C4C" fill-rule="nonzero" x="8.62244898" y="17.1142548" width="1.11046691" height="14.566713"></rect>
                            <rect id="Rectangle" fill="#4B4C4C" fill-rule="nonzero" x="44.6799629" y="20.837585" width="1.11046691" height="14.566713"></rect>
                            <rect id="Rectangle" fill="#4B4C4C" fill-rule="nonzero" x="2.67818491" y="20.837585" width="1.11046691" height="14.566713"></rect>
                            <path d="M41.8058132,28.3495671 L7.12005257,28.3495671 C3.46204391,28.3495671 0.522572665,25.4100959 0.522572665,21.7520872 L0.522572665,21.3601577 C0.522572665,17.702149 3.46204391,14.7626778 7.12005257,14.7626778 L41.8058132,14.7626778 C45.4638219,14.7626778 48.4032931,17.702149 48.4032931,21.3601577 L48.4032931,21.7520872 C48.4032931,25.4100959 45.4638219,28.3495671 41.8058132,28.3495671 Z" id="Path" stroke="#4B4C4C" fill="#FFFFFF" fill-rule="nonzero"></path>
                            <path d="M44.6799629,20.5109771 L4.24590291,20.5109771 L4.24590291,8.75309215 C4.24590291,3.91929499 8.09987631,0.0653215832 12.9336735,0.0653215832 L36.0575139,0.0653215832 C40.8913111,0.0653215832 44.7452845,3.91929499 44.7452845,8.75309215 L44.6799629,20.5109771 L44.6799629,20.5109771 Z" id="Path" stroke="#4B4C4C" fill="#FFFFFF" fill-rule="nonzero"></path>
                            <path d="M43.3082096,25.2794527 L5.61765615,25.2794527 C2.80882808,25.2794527 0.522572665,22.9931973 0.522572665,20.1843692 L0.522572665,19.8577613 C0.522572665,17.0489332 2.80882808,14.7626778 5.61765615,14.7626778 L43.3082096,14.7626778 C46.1170377,14.7626778 48.4032931,17.0489332 48.4032931,19.8577613 L48.4032931,20.1843692 C48.4032931,22.9931973 46.1170377,25.2794527 43.3082096,25.2794527 Z" id="Path" stroke="#4B4C4C" fill="#FFFFFF" fill-rule="nonzero"></path>
                            <g transform="translate(7.838590, 7.185374)" id="Path">
                                <path d="M9.79823748,3.26607916 C9.73291589,2.67818491 9.47162956,2.09029066 9.14502165,1.567718 L9.01437848,0.457251082 L7.90391156,0.587894249 C7.3813389,0.326607916 6.79344465,0.19596475 6.07490724,0.261286333 L3.65800866,0.587894249 C3.07011441,0.653215832 2.48222016,0.914502165 1.9596475,1.24111008 L0.849180581,1.37175325 L0.979823748,2.48222016 C0.718537415,3.00479283 0.587894249,3.59268707 0.653215832,4.31122449 L0.979823748,6.72812307 C1.04514533,7.31601732 1.30643166,7.90391156 1.63303958,8.42648423 L1.76368275,9.53695114 L2.87414966,9.40630798 C3.39672233,9.66759431 3.98461657,9.79823748 4.70315399,9.73291589 L7.12005257,9.40630798 C7.70794682,9.34098639 8.29584106,9.07970006 8.81841373,8.75309215 L9.92888064,8.62244898 L9.79823748,7.51198207 C10.0595238,6.9894094 10.190167,6.40151515 10.1248454,5.68297774 L9.79823748,3.26607916 Z" stroke="#4B4C4C" fill="#FFFFFF" fill-rule="nonzero"></path>
                                <line x1="6.2055504" y1="3.91929499" x2="4.57251082" y2="6.00958565" stroke="#4A4A4A" stroke-linecap="round" stroke-linejoin="round"></line>
                                <line x1="4.31122449" y1="4.11525974" x2="6.40151515" y2="5.74829932" stroke="#4A4A4A" stroke-linecap="round" stroke-linejoin="round"></line>
                                <path d="M5.55233457,5.29104824 L5.22572665,5.35636982 C5.0297619,5.35636982 4.83379716,5.22572665 4.83379716,5.0297619 L4.83379716,5.0297619 C4.83379716,4.83379716 4.96444032,4.63783241 5.16040507,4.63783241 L5.48701299,4.57251082 C5.68297774,4.57251082 5.87894249,4.70315399 5.87894249,4.89911874 L5.87894249,4.89911874 C5.87894249,5.09508349 5.8136209,5.29104824 5.55233457,5.29104824 Z" stroke="#4B4C4C" fill="#FFFFFF" fill-rule="nonzero"></path>
                            </g>
                            <g transform="translate(30.701144, 7.185374)" id="Path">
                                <path d="M0.457251082,3.26607916 C0.522572665,2.67818491 0.783858998,2.09029066 1.11046691,1.567718 L1.24111008,0.457251082 L2.35157699,0.587894249 C2.87414966,0.326607916 3.46204391,0.19596475 4.18058132,0.261286333 L6.5974799,0.587894249 C7.18537415,0.653215832 7.7732684,0.914502165 8.29584106,1.24111008 L9.40630798,1.37175325 L9.27566481,2.48222016 C9.53695114,3.00479283 9.66759431,3.59268707 9.60227273,4.31122449 L9.27566481,6.72812307 C9.21034323,7.31601732 8.9490569,7.90391156 8.62244898,8.42648423 L8.49180581,9.53695114 L7.3813389,9.40630798 C6.85876623,9.66759431 6.27087199,9.79823748 5.55233457,9.73291589 L3.13543599,9.40630798 C2.54754174,9.34098639 1.9596475,9.07970006 1.43707483,8.75309215 L0.326607916,8.62244898 L0.457251082,7.51198207 C0.19596475,6.9894094 0.0653215832,6.40151515 0.130643166,5.68297774 L0.457251082,3.26607916 Z" stroke="#4B4C4C" fill="#FFFFFF" fill-rule="nonzero"></path>
                                <line x1="4.04993816" y1="3.91929499" x2="5.68297774" y2="6.00958565" stroke="#4A4A4A" stroke-linecap="round" stroke-linejoin="round"></line>
                                <line x1="5.94426407" y1="4.11525974" x2="3.85397341" y2="5.74829932" stroke="#4A4A4A" stroke-linecap="round" stroke-linejoin="round"></line>
                                <path d="M4.70315399,5.29104824 L5.0297619,5.35636982 C5.22572665,5.35636982 5.4216914,5.22572665 5.4216914,5.0297619 L5.4216914,5.0297619 C5.4216914,4.83379716 5.29104824,4.63783241 5.09508349,4.63783241 L4.76847557,4.57251082 C4.57251082,4.57251082 4.37654607,4.70315399 4.37654607,4.89911874 L4.37654607,4.89911874 C4.37654607,5.09508349 4.50718924,5.29104824 4.70315399,5.29104824 Z" stroke="#4B4C4C" fill="#FFFFFF" fill-rule="nonzero"></path>
                            </g>
                        </g>
                        <g>
                            <path d="M6.46683673,2.02496908 L4.18058132,2.02496908 C2.74350649,2.02496908 1.567718,3.13543599 1.567718,4.63783241 L1.567718,7.70794682 C1.567718,8.49180581 1.9596475,9.21034323 2.48222016,9.66759431 L2.48222016,12.2151361 C2.48222016,12.9336735 3.00479283,13.4562461 3.72333024,13.4562461 L5.74829932,13.4562461 C6.46683673,13.4562461 6.9894094,12.9336735 6.9894094,12.2151361 L6.9894094,10.190167 C8.09987631,9.86355906 8.88373531,8.88373531 8.88373531,7.64262523 L8.88373531,4.63783241 C9.07970006,3.20075758 7.90391156,2.02496908 6.46683673,2.02496908 Z" id="Path" stroke="#4B4C4C" fill="#FFFFFF" fill-rule="nonzero"></path>
                            <g transform="translate(0.653216, 4.572511)">
                                <rect id="Rectangle" stroke="#4B4C4C" fill="#FFFFFF" fill-rule="nonzero" x="2.48222016" y="47.5541126" width="1.89432591" height="2.35157699"></rect>
                                <g transform="translate(1.306432, 48.337972)" id="Path">
                                    <path d="M4.24590291,0.914502165 L3.85397341,0.391929499 C3.72333024,0.19596475 3.46204391,0.19596475 3.33140074,0.326607916 C3.13543599,0.457251082 3.13543599,0.718537415 3.26607916,0.849180581 L3.33140074,0.914502165 L1.69836116,0.914502165 C1.1757885,0.914502165 0.653215832,1.30643166 0.653215832,1.9596475 L0.653215832,3.39672233 C0.653215832,3.91929499 1.04514533,4.44186766 1.69836116,4.44186766 L5.68297774,4.44186766 C6.2055504,4.44186766 6.72812307,4.04993816 6.72812307,3.39672233 L6.72812307,3.39672233 C6.66280148,1.9596475 5.55233457,0.914502165 4.24590291,0.914502165 Z" stroke="#4B4C4C" fill="#FFFFFF" fill-rule="nonzero"></path>
                                    <path d="M6.53215832,4.31122449 L0.783858998,4.31122449 C0.587894249,4.31122449 0.391929499,4.11525974 0.391929499,3.91929499 L0.391929499,3.91929499 C0.391929499,3.72333024 0.587894249,3.52736549 0.783858998,3.52736549 L6.53215832,3.52736549 C6.72812307,3.52736549 6.92408782,3.72333024 6.92408782,3.91929499 L6.92408782,3.91929499 C6.85876623,4.11525974 6.66280148,4.31122449 6.53215832,4.31122449 Z" stroke="#4B4C4C" fill="#FFFFFF" fill-rule="nonzero"></path>
                                    <line x1="4.37654607" y1="1.50239641" x2="4.70315399" y2="0.979823748" stroke="#4A4A4A" stroke-linecap="round" stroke-linejoin="round"></line>
                                    <line x1="4.96444032" y1="1.69836116" x2="5.22572665" y2="1.1757885" stroke="#4A4A4A" stroke-linecap="round" stroke-linejoin="round"></line>
                                </g>
                                <rect id="Rectangle" stroke="#4B4C4C" fill="#FFFFFF" fill-rule="nonzero" x="5.22572665" y="47.5541126" width="1.89432591" height="2.35157699"></rect>
                                <g transform="translate(3.919295, 48.337972)" id="Path">
                                    <path d="M4.44186766,0.914502165 L4.04993816,0.391929499 C3.91929499,0.19596475 3.65800866,0.19596475 3.52736549,0.326607916 C3.33140074,0.457251082 3.33140074,0.718537415 3.46204391,0.849180581 L3.52736549,0.914502165 L1.89432591,0.914502165 C1.37175325,0.914502165 0.849180581,1.30643166 0.849180581,1.9596475 L0.849180581,3.39672233 C0.849180581,3.91929499 1.24111008,4.44186766 1.89432591,4.44186766 L5.87894249,4.44186766 C6.40151515,4.44186766 6.92408782,4.04993816 6.92408782,3.39672233 L6.92408782,3.39672233 C6.79344465,1.9596475 5.68297774,0.914502165 4.44186766,0.914502165 Z" stroke="#4B4C4C" fill="#FFFFFF" fill-rule="nonzero"></path>
                                    <path d="M6.66280148,4.31122449 L0.914502165,4.31122449 C0.718537415,4.31122449 0.522572665,4.11525974 0.522572665,3.91929499 L0.522572665,3.91929499 C0.522572665,3.72333024 0.718537415,3.52736549 0.914502165,3.52736549 L6.66280148,3.52736549 C6.85876623,3.52736549 7.05473098,3.72333024 7.05473098,3.91929499 L7.05473098,3.91929499 C7.05473098,4.11525974 6.85876623,4.31122449 6.66280148,4.31122449 Z" stroke="#4B4C4C" fill="#FFFFFF" fill-rule="nonzero"></path>
                                    <line x1="4.57251082" y1="1.50239641" x2="4.83379716" y2="0.979823748" stroke="#4A4A4A" stroke-linecap="round" stroke-linejoin="round"></line>
                                    <line x1="5.09508349" y1="1.69836116" x2="5.4216914" y2="1.1757885" stroke="#4A4A4A" stroke-linecap="round" stroke-linejoin="round"></line>
                                </g>
                                <line x1="2.35157699" y1="23.8423779" x2="8.88373531" y2="23.8423779" id="Path" stroke="#4B4C4C"></line>
                                <rect id="Rectangle" stroke="#4B4C4C" fill="#EAEAEA" fill-rule="nonzero" x="1.82900433" y="21.4254793" width="4.50718924" height="26.7818491"></rect>
                                <rect id="Rectangle" stroke="#4B4C4C" fill="#EAEAEA" fill-rule="nonzero" x="3.39672233" y="21.4254793" width="4.50718924" height="26.7818491"></rect>
                                <line x1="4.11525974" y1="0.718537415" x2="4.11525974" y2="1.11046691" id="Path" stroke="#4A4A4A" stroke-linecap="round" stroke-linejoin="round"></line>
                                <line x1="7.25069573" y1="0.718537415" x2="7.25069573" y2="1.11046691" id="Path" stroke="#4A4A4A" stroke-linecap="round" stroke-linejoin="round"></line>
                                <path d="M4.70315399,2.54754174 L4.70315399,2.54754174 C5.22572665,2.93947124 5.94426407,2.93947124 6.46683673,2.54754174 L6.46683673,2.54754174" id="Path" stroke="#4A4A4A" stroke-linecap="round" stroke-linejoin="round"></path>
                                <path d="M8.62244898,26.7165275 L0.326607916,26.7165275 L0.326607916,8.5571274 C0.326607916,7.25069573 1.43707483,6.14022882 2.74350649,6.14022882 L5.0297619,6.14022882 C6.9894094,6.14022882 8.68777056,7.7732684 8.68777056,9.79823748 L8.62244898,26.7165275 L8.62244898,26.7165275 Z" id="Path" stroke="#4B4C4C" fill="#32C5FF" fill-rule="nonzero"></path>
                                <path d="M14.0441404,27.6310297 L14.0441404,27.6310297 C13.3909246,28.0229592 12.6723871,27.8269944 12.2804576,27.2391002 L3.33140074,10.7780612 C3.00479283,10.190167 3.20075758,9.47162956 3.78865182,9.07970006 L3.85397341,9.01437848 C4.44186766,8.68777056 5.16040507,8.88373531 5.55233457,9.47162956 L14.5013915,25.9326685 C14.7626778,26.5858844 14.6320346,27.3697434 14.0441404,27.6310297 Z" id="Path" stroke="#4B4C4C" fill="#FFFFFF" fill-rule="nonzero"></path>
                                <path d="M7.70794682,13.0643166 L5.09508349,14.566713 C4.76847557,14.7626778 4.50718924,14.6320346 4.31122449,14.3707483 L2.61286333,11.4965986 C2.09029066,10.5167749 2.35157699,9.34098639 3.33140074,8.75309215 L3.46204391,8.68777056 C4.44186766,8.1651979 5.61765615,8.42648423 6.2055504,9.40630798 L7.90391156,12.2804576 C8.03455473,12.4764224 7.96923315,12.8683519 7.70794682,13.0643166 Z" id="Path" stroke="#4B4C4C" fill="#32C5FF" fill-rule="nonzero"></path>
                            </g>
                            <path d="M7.3813389,0.587894249 C7.3813389,0.587894249 5.55233457,-0.130643166 3.46204391,0.326607916 C3.46204391,0.326607916 1.11046691,0.522572665 1.30643166,2.15561224 C1.30643166,2.15561224 -0.653215832,2.80882808 1.04514533,7.64262523 C1.04514533,7.64262523 1.69836116,8.29584106 1.82900433,8.23051948 L1.82900433,7.18537415 C1.82900433,6.92408782 1.9596475,6.72812307 2.09029066,6.53215832 L2.35157699,6.2055504 C2.15561224,6.07490724 2.02496908,5.87894249 1.9596475,5.74829932 L1.89432591,5.55233457 C1.76368275,5.09508349 2.02496908,4.50718924 2.54754174,4.44186766 C2.93947124,4.31122449 3.33140074,4.50718924 3.59268707,4.83379716 C3.78865182,4.57251082 4.11525974,3.91929499 3.98461657,2.93947124 C5.29104824,3.52736549 6.53215832,3.39672233 6.72812307,3.20075758 C6.72812307,3.20075758 8.23051948,4.57251082 9.01437848,4.04993816 C9.07970006,3.91929499 12.0191713,1.63303958 7.3813389,0.587894249 Z" id="Path" fill="#4B4C4C" fill-rule="nonzero"></path>
                        </g>
                        <g transform="translate(48.337972, 0.000000)">
                            <path d="M9.27566481,2.02496908 L11.5619202,2.02496908 C12.9989951,2.02496908 14.1747835,3.13543599 14.1747835,4.63783241 L14.1747835,7.70794682 C14.1747835,8.49180581 13.7828541,9.21034323 13.2602814,9.66759431 L13.2602814,12.2151361 C13.2602814,12.9336735 12.7377087,13.4562461 12.0191713,13.4562461 L9.99420223,13.4562461 C9.27566481,13.4562461 8.75309215,12.9336735 8.75309215,12.2151361 L8.75309215,10.190167 C7.64262523,9.86355906 6.85876623,8.88373531 6.85876623,7.64262523 L6.85876623,4.63783241 C6.72812307,3.20075758 7.83858998,2.02496908 9.27566481,2.02496908 Z" id="Path" stroke="#4B4C4C" fill="#FFFFFF" fill-rule="nonzero"></path>
                            <g transform="translate(0.000000, 4.572511)">
                                <rect id="Rectangle" stroke="#4B4C4C" fill="#FFFFFF" fill-rule="nonzero" x="10.7127396" y="47.488791" width="1.89432591" height="2.35157699"></rect>
                                <g transform="translate(6.532158, 48.337972)" id="Path">
                                    <path d="M3.00479283,0.914502165 L3.39672233,0.391929499 C3.52736549,0.19596475 3.78865182,0.19596475 3.91929499,0.326607916 C4.11525974,0.457251082 4.11525974,0.718537415 3.98461657,0.849180581 L3.91929499,0.914502165 L5.55233457,0.914502165 C6.07490724,0.914502165 6.5974799,1.30643166 6.5974799,1.9596475 L6.5974799,3.39672233 C6.5974799,3.91929499 6.2055504,4.44186766 5.55233457,4.44186766 L1.567718,4.44186766 C1.04514533,4.44186766 0.522572665,4.04993816 0.522572665,3.39672233 L0.522572665,3.39672233 C0.653215832,1.9596475 1.69836116,0.914502165 3.00479283,0.914502165 Z" stroke="#4B4C4C" fill="#FFFFFF" fill-rule="nonzero"></path>
                                    <path d="M0.783858998,4.31122449 L6.53215832,4.31122449 C6.72812307,4.31122449 6.92408782,4.11525974 6.92408782,3.91929499 L6.92408782,3.91929499 C6.92408782,3.72333024 6.72812307,3.52736549 6.53215832,3.52736549 L0.783858998,3.52736549 C0.587894249,3.52736549 0.391929499,3.72333024 0.391929499,3.91929499 L0.391929499,3.91929499 C0.391929499,4.11525974 0.522572665,4.31122449 0.783858998,4.31122449 Z" stroke="#4B4C4C" fill="#FFFFFF" fill-rule="nonzero"></path>
                                    <line x1="2.87414966" y1="1.50239641" x2="2.54754174" y2="0.979823748" stroke="#4A4A4A" stroke-linecap="round" stroke-linejoin="round"></line>
                                    <line x1="2.28625541" y1="1.69836116" x2="2.02496908" y2="1.1757885" stroke="#4A4A4A" stroke-linecap="round" stroke-linejoin="round"></line>
                                </g>
                                <rect id="Rectangle" stroke="#4B4C4C" fill="#FFFFFF" fill-rule="nonzero" x="7.90391156" y="47.488791" width="1.89432591" height="2.35157699"></rect>
                                <g transform="translate(3.919295, 48.337972)" id="Path">
                                    <path d="M2.87414966,0.914502165 L3.26607916,0.391929499 C3.39672233,0.19596475 3.65800866,0.19596475 3.78865182,0.326607916 C3.98461657,0.457251082 3.98461657,0.718537415 3.85397341,0.849180581 L3.78865182,0.914502165 L5.4216914,0.914502165 C5.94426407,0.914502165 6.46683673,1.30643166 6.46683673,1.9596475 L6.46683673,3.39672233 C6.46683673,3.91929499 6.07490724,4.44186766 5.4216914,4.44186766 L1.43707483,4.44186766 C0.914502165,4.44186766 0.391929499,4.04993816 0.391929499,3.39672233 L0.391929499,3.39672233 C0.522572665,1.9596475 1.567718,0.914502165 2.87414966,0.914502165 Z" stroke="#4B4C4C" fill="#FFFFFF" fill-rule="nonzero"></path>
                                    <path d="M0.653215832,4.31122449 L6.40151515,4.31122449 C6.5974799,4.31122449 6.79344465,4.11525974 6.79344465,3.91929499 L6.79344465,3.91929499 C6.79344465,3.72333024 6.5974799,3.52736549 6.40151515,3.52736549 L0.653215832,3.52736549 C0.457251082,3.52736549 0.261286333,3.72333024 0.261286333,3.91929499 L0.261286333,3.91929499 C0.19596475,4.11525974 0.391929499,4.31122449 0.653215832,4.31122449 Z" stroke="#4B4C4C" fill="#FFFFFF" fill-rule="nonzero"></path>
                                    <line x1="2.74350649" y1="1.50239641" x2="2.35157699" y2="0.979823748" stroke="#4A4A4A" stroke-linecap="round" stroke-linejoin="round"></line>
                                    <line x1="2.15561224" y1="1.69836116" x2="1.89432591" y2="1.1757885" stroke="#4A4A4A" stroke-linecap="round" stroke-linejoin="round"></line>
                                </g>
                                <rect id="Rectangle" stroke="#4B4C4C" fill="#EAEAEA" fill-rule="nonzero" x="8.75309215" y="21.4254793" width="4.50718924" height="26.7818491"></rect>
                                <rect id="Rectangle" stroke="#4B4C4C" fill="#EAEAEA" fill-rule="nonzero" x="7.25069573" y="21.4254793" width="4.50718924" height="26.7818491"></rect>
                                <line x1="10.974026" y1="0.718537415" x2="10.974026" y2="1.11046691" id="Path" stroke="#4A4A4A" stroke-linecap="round" stroke-linejoin="round"></line>
                                <line x1="7.90391156" y1="0.718537415" x2="7.90391156" y2="1.11046691" id="Path" stroke="#4A4A4A" stroke-linecap="round" stroke-linejoin="round"></line>
                                <path d="M10.3861317,2.54754174 L10.3861317,2.54754174 C9.86355906,2.93947124 9.14502165,2.93947124 8.62244898,2.54754174 L8.62244898,2.54754174" id="Path" stroke="#4A4A4A" stroke-linecap="round" stroke-linejoin="round"></path>
                                <path d="M6.46683673,26.7165275 L14.7626778,26.7165275 L14.7626778,8.5571274 C14.7626778,7.25069573 13.6522109,6.14022882 12.3457792,6.14022882 L10.0595238,6.14022882 C8.09987631,6.14022882 6.40151515,7.7732684 6.40151515,9.79823748 L6.46683673,26.7165275 L6.46683673,26.7165275 Z" id="Path" stroke="#4B4C4C" fill="#32C5FF" fill-rule="nonzero"></path>
                                <path d="M1.11046691,27.6310297 L1.11046691,27.6310297 C1.76368275,28.0229592 2.48222016,27.8269944 2.87414966,27.2391002 L11.8232066,10.7780612 C12.1498145,10.190167 11.9538497,9.47162956 11.3659555,9.07970006 L11.3006339,9.01437848 C10.7127396,8.68777056 9.99420223,8.88373531 9.60227273,9.47162956 L0.653215832,25.9979901 C0.261286333,26.5858844 0.522572665,27.3697434 1.11046691,27.6310297 Z" id="Path" stroke="#4B4C4C" fill="#FFFFFF" fill-rule="nonzero"></path>
                                <path d="M7.3813389,13.0643166 L9.99420223,14.566713 C10.3208101,14.7626778 10.5820965,14.6320346 10.7780612,14.3707483 L12.4764224,11.4965986 C12.9989951,10.5167749 12.7377087,9.34098639 11.757885,8.75309215 L11.6272418,8.68777056 C10.6474181,8.1651979 9.47162956,8.42648423 8.88373531,9.40630798 L7.18537415,12.2804576 C7.05473098,12.4764224 7.12005257,12.8683519 7.3813389,13.0643166 Z" id="Path" stroke="#4B4C4C" fill="#32C5FF" fill-rule="nonzero"></path>
                            </g>
                            <path d="M8.36116265,0.587894249 C8.36116265,0.587894249 10.190167,-0.130643166 12.2804576,0.326607916 C12.2804576,0.326607916 14.6320346,0.522572665 14.4360699,2.15561224 C14.4360699,2.15561224 16.3957174,2.80882808 14.6973562,7.64262523 C14.6973562,7.64262523 14.0441404,8.29584106 13.9134972,8.23051948 L13.9134972,7.18537415 C13.9134972,6.92408782 13.7828541,6.72812307 13.6522109,6.53215832 L13.3909246,6.2055504 C13.5868893,6.07490724 13.7175325,5.87894249 13.7828541,5.74829932 L13.8481756,5.55233457 C13.9788188,5.09508349 13.7175325,4.50718924 13.1949598,4.44186766 C12.8030303,4.31122449 12.4111008,4.50718924 12.1498145,4.83379716 C11.9538497,4.57251082 11.6272418,3.91929499 11.757885,2.93947124 C10.4514533,3.52736549 9.21034323,3.39672233 9.01437848,3.20075758 C9.01437848,3.20075758 7.51198207,4.57251082 6.72812307,4.04993816 C6.72812307,3.91929499 3.78865182,1.63303958 8.36116265,0.587894249 Z" id="Path" fill="#4B4C4C" fill-rule="nonzero"></path>
                        </g>
                    </g>
                </g>
            </g>
        </g>
    </g>
</svg>