<?xml version="1.0" encoding="UTF-8"?>
<svg width="67px" height="53px" viewBox="0 0 67 53" version="1.1" xmlns="http://www.w3.org/2000/svg" xmlns:xlink="http://www.w3.org/1999/xlink">
    <title>Group 6</title>
    <g id="Website" stroke="none" stroke-width="1" fill="none" fill-rule="evenodd">
        <g id="homepage" transform="translate(-139.000000, -1176.000000)" fill-rule="nonzero">
            <g id="8-services" transform="translate(1.000000, 666.000000)">
                <g id="Group-4" transform="translate(123.000000, 487.000000)">
                    <g id="Group-6" transform="translate(16.000000, 24.000000)">
                        <g id="Group" stroke="#4B4C4C">
                            <rect id="Rectangle" stroke-width="2" fill="#EAEAEA" x="3.12171053" y="2.56578947" width="58.6710526" height="48.1940789"></rect>
                            <rect id="Rectangle" fill="#32C5FF" x="0" y="0.384868421" width="64.8289474" height="2.13815789"></rect>
                            <rect id="Rectangle" fill="#EAEAEA" x="3.12171053" y="4.70394737" width="58.6710526" height="1.32565789"></rect>
                            <rect id="Rectangle" fill="#EAEAEA" x="3.12171053" y="8.25328947" width="58.6710526" height="1.32565789"></rect>
                            <rect id="Rectangle" fill="#FFFFFF" x="3.12171053" y="12.2730263" width="58.6710526" height="38.5723684"></rect>
                            <rect id="Rectangle" fill="#FFFFFF" x="1.15460526" y="2.52302632" width="2.00986842" height="48.2796053"></rect>
                            <rect id="Rectangle" fill="#FFFFFF" x="61.7927632" y="2.56578947" width="2.00986842" height="48.2796053"></rect>
                        </g>
                        <g id="Group" transform="translate(2.000000, 11.000000)" stroke="#4B4C4C">
                            <rect id="Rectangle" fill="#FFFFFF" x="1.15555556" y="1.0021978" width="1" height="36.8307692"></rect>
                            <rect id="Rectangle" fill="#FFFFFF" x="23.6888889" y="1.0021978" width="1" height="36.8307692"></rect>
                            <rect id="Rectangle" fill="#FFFFFF" x="0.206349206" y="6.22197802" width="25.6698413" height="1"></rect>
                            <rect id="Rectangle" fill="#FFFFFF" x="0.165079365" y="13.7802198" width="25.6698413" height="1"></rect>
                            <rect id="Rectangle" fill="#FFFFFF" x="0.165079365" y="21.3384615" width="25.6698413" height="1"></rect>
                            <rect id="Rectangle" fill="#FFFFFF" x="0.165079365" y="28.5626374" width="25.6698413" height="1"></rect>
                            <rect id="Rectangle" fill="#FFFFFF" x="0.165079365" y="35.7868132" width="25.6698413" height="1"></rect>
                            <rect id="Rectangle" fill="#EAEAEA" x="2.35238095" y="1.0021978" width="6.93333333" height="5.17802198"></rect>
                            <rect id="Rectangle" fill="#FFFFFF" x="9.94603175" y="0.334065934" width="9.16190476" height="5.92967033"></rect>
                            <rect id="Rectangle" fill="#EAEAEA" x="2.35238095" y="29.9406593" width="7.59365079" height="5.92967033"></rect>
                            <rect id="Rectangle" fill="#F5F6F7" x="9.94603175" y="30.7340659" width="6.97460317" height="5.13626374"></rect>
                            <rect id="Rectangle" fill="#FFFFFF" x="16.9206349" y="30.1076923" width="6.43809524" height="5.72087912"></rect>
                            <rect id="Rectangle" fill="#EAEAEA" x="2.72380952" y="16.243956" width="6.97460317" height="5.13626374"></rect>
                            <rect id="Rectangle" fill="#FFFFFF" x="9.6984127" y="15.6593407" width="6.43809524" height="5.72087912"></rect>
                            <rect id="Rectangle" fill="#EAEAEA" x="15.0634921" y="22.6747253" width="7.59365079" height="5.92967033"></rect>
                            <rect id="Rectangle" fill="#FFFFFF" x="9.98730159" y="23.0923077" width="4.91111111" height="5.51208791"></rect>
                            <rect id="Rectangle" fill="#FFFFFF" x="3.38412698" y="23.0923077" width="4.91111111" height="5.51208791"></rect>
                            <rect id="Rectangle" fill="#FFFFFF" x="17.2920635" y="18.6241758" width="4.91111111" height="2.75604396"></rect>
                            <rect id="Rectangle" fill="#FFFFFF" x="17.2920635" y="15.8681319" width="4.91111111" height="2.75604396"></rect>
                            <rect id="Rectangle" fill="#FFFFFF" x="2.06349206" y="11.0659341" width="8.83174603" height="2.75604396"></rect>
                            <rect id="Rectangle" fill="#FFFFFF" x="2.06349206" y="8.30989011" width="8.83174603" height="2.75604396"></rect>
                            <rect id="Rectangle" fill="#F5F6F7" x="10.8952381" y="7.89230769" width="7.59365079" height="5.92967033"></rect>
                            <rect id="Rectangle" fill="#FFFFFF" x="18.4888889" y="8.30989011" width="4.91111111" height="5.51208791"></rect>
                        </g>
                        <g id="forklift" transform="translate(46.000000, 36.500000) scale(-1, 1) translate(-46.000000, -36.500000) translate(31.000000, 21.000000)">
                            <polygon id="Path" fill="#D9D9D9" points="16.8550195 20.1485156 11.955 15.2534766 12.855 14.3585156 12.1450195 13.6484766 9.645 16.1484961 10.3549805 16.8584766 11.25 15.9584766 16.1449805 20.8584961"></polygon>
                            <path d="M17.5000195,26.0034961 L16.5,26.0034961 L16.5,18.6234961 L11.4649805,8.55849609 C11.2969922,8.22046875 10.9524609,8.00548828 10.575,8.00349609 L1.5,8.00349609 C1.22402344,8.00349609 1.00001953,8.2275 1.00001953,8.50347656 L1.00001953,20.0034961 L0,20.0034961 L0,8.50347656 C0,7.67496094 0.671484375,7.00347656 1.5,7.00347656 L10.575,7.00347656 C11.3309766,7.005 12.0215039,7.4325 12.36,8.10849609 L17.5000195,18.3834961 L17.5000195,26.0034961 Z" id="Path" fill="#FFA230"></path>
                            <rect id="Rectangle" fill="#FFFFFF" x="21" y="16.005" width="8.50001953" height="7.99998047"></rect>
                            <path d="M7.99998047,20.0034961 L8.49996094,20.0034961 C9.05244141,20.0034961 9.49998047,19.5560156 9.49998047,19.0034766 L9.49998047,19.0034766 C9.49998047,18.4509961 9.0525,18.003457 8.49996094,18.003457 L4.5,18.003457 L4.5,13.503457 C4.5,12.9509766 4.05251953,12.5034375 3.49998047,12.5034375 L3.49998047,12.5034375 C2.9475,12.5034375 2.49996094,12.950918 2.49996094,13.503457 L2.49996094,20.0034961 L7.99998047,20.0034961 L7.99998047,20.0034961 Z" id="Path" fill="#D9D9D9"></path>
                            <rect id="Rectangle" fill="#FFA230" x="19.0000195" y="25.5049805" width="10.9999805" height="1.00001953"></rect>
                            <rect id="Rectangle" fill="#FA962A" x="19.0000195" y="25.5049805" width="1.00001953" height="1.00001953"></rect>
                            <g id="Group" transform="translate(0.468750, 22.500000)" fill="#EAEAEA">
                                <circle id="Oval" cx="13.03125" cy="3.50501953" r="3.49998047"></circle>
                                <circle id="Oval" cx="2.53125" cy="4.50498047" r="2.50001953"></circle>
                            </g>
                            <g id="Group" transform="translate(2.460938, 25.960938)" fill="#4B4C4C">
                                <path d="M0.5390625,0.542539062 L0.5390625,0.542539062 C0.815039063,0.542539062 1.03904297,0.766542969 1.03904297,1.04251953 L1.03904297,1.04251953 C1.03904297,1.31849609 0.815039063,1.5425 0.5390625,1.5425 L0.5390625,1.5425 C0.263085938,1.5425 0.0390820313,1.31849609 0.0390820313,1.04251953 L0.0390820313,1.04251953 C0.0390820313,0.766074219 0.263085938,0.542539062 0.5390625,0.542539062 Z" id="Path"></path>
                            </g>
                            <path d="M29.5000195,15.5034961 L21,15.5034961 C20.7240234,15.5034961 20.5000195,15.7275 20.5000195,16.0034766 L20.5000195,24.0035156 C20.5000195,24.2794922 20.7240234,24.5034961 21,24.5034961 L29.5000195,24.5034961 C29.7759961,24.5034961 30,24.2794922 30,24.0035156 L30,16.0034766 C30,15.7269727 29.7759961,15.5034961 29.5000195,15.5034961 Z M25.9999805,16.5035156 L25.9999805,18.5034961 L24.4999805,18.5034961 L24.4999805,16.5035156 L25.9999805,16.5035156 Z M28.9999805,23.5034766 L21.4999805,23.5034766 L21.4999805,16.5035156 L23.4999609,16.5035156 L23.4999609,19.0035352 C23.4999609,19.2795117 23.7239648,19.5035156 23.9999414,19.5035156 L26.4999609,19.5035156 C26.7759375,19.5035156 26.9999414,19.2795117 26.9999414,19.0035352 L26.9999414,16.5035156 L28.9999805,16.5035156 L28.9999805,23.5034766 L28.9999805,23.5034766 Z" id="Shape" fill="#4B4C4C"></path>
                            <path d="M13.5,24.5034961 C12.6714844,24.5034961 12,25.1749805 12,26.0034961 C12,26.8320117 12.6714844,27.5034961 13.5,27.5034961 C14.3285156,27.5034961 15,26.8320117 15,26.0034961 C15,25.1749805 14.3285156,24.5034961 13.5,24.5034961 Z M13.5,26.5034766 C13.2240234,26.5034766 13.0000195,26.2794727 13.0000195,26.0034961 C13.0000195,25.7275195 13.2240234,25.5035156 13.5,25.5035156 C13.7759766,25.5035156 13.9999805,25.7275195 13.9999805,26.0034961 C13.9999805,26.2794727 13.7759766,26.5034766 13.5,26.5034766 Z" id="Shape" fill="#4B4C4C"></path>
                            <path d="M19.5,0.503496094 C19.5,0.227519531 19.2759961,0.003515625 19.0000195,0.003515625 L17.0000391,0.003515625 C16.7240625,0.003515625 16.5000586,0.227519531 16.5000586,0.503496094 L16.5000586,16.3835156 L12.3600586,8.10849609 C12.0215625,7.4325 11.3310352,7.005 10.5750586,7.00347656 L1.5,7.00347656 C0.671484375,7.00347656 0,7.67496094 0,8.50347656 L0,27.0035156 C0.003515625,28.6604883 1.35,30.0005273 3.00650391,29.9965518 C3.85453125,29.9945508 4.66248047,29.6335547 5.23001953,29.0035547 L10.8650391,29.0035547 C12.5265234,30.4595508 15.0535547,30.2925586 16.5095508,28.6310742 C16.5145313,28.6250977 16.5200391,28.6190625 16.5250781,28.6135547 C16.5755859,28.8370312 16.7710547,28.9975781 17.0000977,29.0035547 L19.0000781,29.0035547 C19.2760547,29.0035547 19.5000586,28.7795508 19.5000586,28.5035742 L19.5000586,26.5035937 L30,26.5035937 L30,25.5035156 L19.5,25.5035156 L19.5,0.503496094 Z M16.5,21.2084766 L16.5,23.3684766 C16.1599805,22.9790039 15.7474805,22.6594922 15.285,22.428457 L16.5,21.2084766 Z M1.5,8.00349609 L10.575,8.00349609 C10.9525195,8.00548828 11.2969922,8.22046875 11.4649805,8.55849609 L16.5,18.6234961 L16.5,19.7984766 L11.955,15.2534766 L12.855,14.358457 L12.1450195,13.6484766 L9.645,16.1484961 L10.3549805,16.8584766 L11.25,15.9584766 L15.795,20.5034766 L14.295,22.0034766 L12.645,22.0034766 L9.55001953,20.073457 C9.83753906,19.7914453 9.99949219,19.405957 10.0000195,19.0034766 C10.0000195,18.1749609 9.32853516,17.5034766 8.50001953,17.5034766 L4.99998047,17.5034766 L4.99998047,13.5035156 C4.99998047,12.675 4.32849609,12.0035156 3.49998047,12.0035156 C2.67146484,12.0035156 1.99998047,12.675 1.99998047,13.5035156 L1.99998047,19.5035156 L1.00001953,19.5035156 L1.00001953,8.50347656 C1.00001953,8.22697266 1.22402344,8.00349609 1.5,8.00349609 Z M4.5,18.5034961 L8.50001953,18.5034961 C8.77599609,18.5034961 9,18.7275 9,19.0034766 C9,19.2794531 8.77599609,19.503457 8.50001953,19.503457 L3,19.503457 L3,13.503457 C3,13.2274805 3.22400391,13.0034766 3.49998047,13.0034766 C3.77595703,13.0034766 3.99996094,13.2274805 3.99996094,13.503457 L3.99996094,18.003457 C4.00001953,18.2794922 4.22402344,18.5034961 4.5,18.5034961 Z M3,29.0034961 C1.89550781,29.0034961 1.00001953,28.1080078 1.00001953,27.0035156 C1.00001953,25.8990234 1.89550781,25.0034766 3,25.0034766 C4.10449219,25.0034766 4.99998047,25.8989648 4.99998047,27.003457 C4.99998047,28.1079492 4.10449219,29.0034961 3,29.0034961 Z M3,24.0035156 C2.26148438,24.0050391 1.54898437,24.2794922 1.00001953,24.7734961 L1.00001953,20.5034766 L8.355,20.5034766 L11.5600195,22.503457 C9.63351563,23.5844531 8.94802734,26.0224805 10.0290234,27.9489844 C10.039043,27.9669727 10.0495313,27.9854883 10.0600195,28.0034766 L5.82498047,28.0034766 C6.37746094,26.4414844 5.55849609,24.7275 3.99650391,24.1749609 C3.67652344,24.0619922 3.33949219,24.0039844 3,24.0035156 Z M13.5,29.0034961 C11.8430273,29.0034961 10.5,27.6604687 10.5,26.0034961 C10.5,24.3465234 11.8430273,23.0034961 13.5,23.0034961 C15.1569727,23.0034961 16.5,24.3465234 16.5,26.0034961 C16.5,27.6604687 15.1569727,29.0034961 13.5,29.0034961 Z M18.4999805,28.0034766 L17.4999609,28.0034766 L17.4999609,1.00347656 L18.4999805,1.00347656 L18.4999805,28.0034766 Z" id="Shape" fill="#4B4C4C"></path>
                            <rect id="Rectangle" fill="#000000" x="2.50001953" y="26.505" width="1.00001953" height="1.00001953"></rect>
                        </g>
                    </g>
                </g>
            </g>
        </g>
    </g>
</svg>