<?xml version="1.0" encoding="UTF-8"?>
<svg width="67px" height="48px" viewBox="0 0 67 48" version="1.1" xmlns="http://www.w3.org/2000/svg" xmlns:xlink="http://www.w3.org/1999/xlink">
    <title>Group 5</title>
    <g id="Website" stroke="none" stroke-width="1" fill="none" fill-rule="evenodd">
        <g id="homepage" transform="translate(-737.000000, -928.000000)">
            <g id="8-services" transform="translate(1.000000, 666.000000)">
                <g id="Group-4" transform="translate(122.000000, 235.000000)">
                    <g id="Group-21" transform="translate(600.000000, 0.000000)">
                        <g id="Group-5" transform="translate(16.000000, 27.000000)">
                            <g id="tote-bag" transform="translate(53.726043, 34.114411) rotate(6.000000) translate(-53.726043, -34.114411) translate(44.226043, 21.929629)" fill-rule="nonzero">
                                <path d="M16.1086957,5.36956005 L16.1086957,7.84782609 L14.4565217,7.84782609 L14.4565217,5.36956212 C14.4565217,3.54462292 12.9771162,2.06521739 11.152177,2.06521739 L11.1521708,2.06521739 C10.2758041,2.06521739 9.43533109,2.41335271 8.81564625,3.03303755 C8.19596141,3.6527224 7.84782609,4.49319541 7.84782609,5.36956212 L7.84782609,7.84782609 L6.19565217,7.84782609 L6.19565217,5.36956005 C6.19565217,2.63215154 8.41476023,0.413043478 11.1521687,0.413043478 L11.1521791,0.413043478 C13.8895876,0.413043478 16.1086957,2.63215154 16.1086957,5.36956005 Z" id="Path" fill="#32C5FF"></path>
                                <rect id="Rectangle" fill="#FFFFFF" x="0.413043478" y="7.02173913" width="14.8695652" height="16.9347826"></rect>
                                <rect id="Rectangle" fill="#F5F6F7" x="15.2826087" y="7.02173913" width="3.30434783" height="16.9347826"></rect>
                                <path d="M12.8043478,5.36956005 L12.8043478,8.67391304 L11.1521739,8.67391304 L11.1521739,5.36956212 C11.1521739,3.54462292 9.67276839,2.06521739 7.84782918,2.06521739 L7.84782299,2.06521739 C6.02288379,2.06521739 4.54347826,3.54462292 4.54347826,5.36956212 L4.54347826,8.67391304 L2.89130435,8.67391304 L2.89130435,5.36956005 C2.89130435,2.63215154 5.11041241,0.413043478 7.84782092,0.413043478 L7.84783125,0.413043478 C10.5852398,0.413043478 12.8043478,2.63215154 12.8043478,5.36956005 Z" id="Path" fill="#32C5FF"></path>
                                <polygon id="Path" fill="#E9CEBE" points="15.2826087 23.9565217 16.9347826 21.4782609 18.5869565 23.9565217"></polygon>
                                <path d="M18.5869565,6.49858043 L16.5217391,6.49858043 L16.5217391,5.2801042 C16.5215342,3.59124277 15.6998542,2.00435674 14.3110778,1.01072015 C12.9223015,0.0170835715 11.1339821,-0.263423136 9.49975424,0.256040335 C7.86557973,-0.263428425 6.07730565,0.0170898993 4.68860267,1.01074354 C3.2998997,2.00439718 2.47832987,3.59129106 2.47826087,5.2801042 L2.47826087,6.49858043 L0.413043478,6.49858043 C0.303496571,6.49857733 0.198435516,6.54136794 0.120974156,6.61753815 C0.0435127948,6.69370836 0,6.79701823 0,6.90473918 L0,23.9634065 C0,24.0711274 0.0435127948,24.1744373 0.120974156,24.2506075 C0.198435516,24.3267777 0.303496571,24.3695652 0.413043478,24.3695652 L18.5869565,24.3695652 C18.6965034,24.3695652 18.8015645,24.3267777 18.8790258,24.2506075 C18.9564872,24.1744373 19,24.0711274 19,23.9634065 L19,6.90473918 C19,6.79701823 18.9564872,6.69370836 18.8790258,6.61753815 C18.8015645,6.54136794 18.6965034,6.49857733 18.5869565,6.49858043 Z M18.173913,22.6219718 L17.3478261,21.4034955 L17.3478261,8.12321541 L16.5217391,8.12321541 L16.5217391,21.4034955 L15.6956522,22.6219718 L15.6956522,7.31089792 L18.173913,7.31089792 L18.173913,22.6219718 Z M12.5959194,2.81667931 C13.4908789,3.32501177 14.0425298,4.26379958 14.0434783,5.2801042 L14.0434783,6.49858043 L13.2173913,6.49858043 L13.2173913,5.2801042 C13.2183599,4.4213261 13.00496,3.57543994 12.5959194,2.81667931 L12.5959194,2.81667931 Z M16.9347826,22.258675 L17.8151848,23.5572477 L16.0543804,23.5572477 L16.9347826,22.258675 Z M11.1521739,0.812357999 C13.6602932,0.815143851 15.6928191,2.81379096 15.6956522,5.2801042 L15.6956522,6.49858043 L14.8695652,6.49858043 L14.8695652,5.2801042 C14.8680718,3.49511021 13.557018,1.97166473 11.7670217,1.67494626 C11.4605591,1.35279244 11.1145359,1.06937361 10.7369212,0.831216965 C10.8744538,0.818986002 11.0129034,0.812357999 11.1521739,0.812357999 Z M3.30434783,5.2801042 C3.30434783,2.81263611 5.33853233,0.812357999 7.84782609,0.812357999 C10.3571198,0.812357999 12.3913043,2.81263611 12.3913043,5.2801042 L12.3913043,8.12321541 L11.5652174,8.12321541 L11.5652174,5.2801042 C11.5652174,3.26126667 9.90088461,1.62467549 7.84782609,1.62467549 C5.79476756,1.62467549 4.13043478,3.26126667 4.13043478,5.2801042 L4.13043478,8.12321541 L3.30434783,8.12321541 L3.30434783,5.2801042 Z M5.7826087,6.49858043 L4.95652174,6.49858043 L4.95652174,5.2801042 C4.95730995,4.26509545 5.5081332,3.32742809 6.40189356,2.81964529 C5.99521298,3.57813134 5.78265123,4.42265295 5.7826087,5.2801042 L5.7826087,6.49858043 Z M6.60869553,5.2801042 C6.60845049,4.24592896 6.97355402,3.24378589 7.64157851,2.44502781 C7.70978799,2.4402717 7.7784069,2.43699297 7.84782609,2.43699297 C8.12782144,2.43699297 8.40632579,2.47707024 8.67455584,2.55604369 C7.88747468,3.25032929 7.43688733,4.24037098 7.43478261,5.2801042 L7.43478261,6.49858043 L6.60869553,6.49858043 L6.60869553,5.2801042 Z M8.26086957,5.2801042 C8.26292229,4.35097547 8.72469434,3.48095866 9.4986669,2.94799145 C10.275429,3.47884019 10.7387695,4.34993581 10.7391304,5.2801042 L10.7391304,6.49858043 L8.26086957,6.49858043 L8.26086957,5.2801042 Z M0.826086957,7.31089792 L2.47826087,7.31089792 L2.47826087,8.52937416 C2.47825772,8.6370951 2.52177366,8.74040497 2.59923503,8.81657518 C2.67669639,8.89274539 2.78175744,8.935536 2.89130435,8.9355329 L4.54347826,8.9355329 C4.65302517,8.935536 4.75808622,8.89274539 4.83554758,8.81657518 C4.91300894,8.74040497 4.95652489,8.6370951 4.95652174,8.52937416 L4.95652174,7.31089792 L10.7391304,7.31089792 L10.7391304,8.52937416 C10.7391273,8.6370951 10.7826432,8.74040497 10.8601046,8.81657518 C10.937566,8.89274539 11.042627,8.935536 11.1521739,8.9355329 L12.8043478,8.9355329 C12.9138947,8.935536 13.0189558,8.89274539 13.0964171,8.81657518 C13.1738785,8.74040497 13.2173945,8.6370951 13.2173913,8.52937416 L13.2173913,7.31089792 L14.8695652,7.31089792 L14.8695652,23.5572477 L0.826086957,23.5572477 L0.826086957,7.31089792 Z" id="Shape" fill="#4B4C4C"></path>
                            </g>
                            <g id="paper" transform="translate(13.762471, 30.762471) rotate(-9.000000) translate(-13.762471, -30.762471) translate(1.762471, 18.762471)">
                                <polygon id="Rectangle" stroke="#979797" fill="#F5F5F5" points="0.406779661 4.49666748 9.10881347 4.49666748 9.10881347 0.406779661 23.5932203 0.406779661 23.5932203 19.5153106 14.5595422 19.4726351 14.5595422 23.5932203 0.406779661 23.5932203"></polygon>
                                <rect id="Rectangle" fill="#32C5FF" x="4.5332025" y="8.20423571" width="3.25423729" height="3.25423729"></rect>
                                <path d="M12.860339,6.5951921 C12.762,6.51724737 12.6328475,6.48984215 12.511322,6.5211624 L7.67918644,7.72922939 L4.47457627,7.72922939 C4.2499322,7.72922939 4.06779661,7.91135464 4.06779661,8.13598595 L4.06779661,8.54274251 L3.66101695,8.54274251 C2.9870339,8.54274251 2.44067797,9.08906741 2.44067797,9.76301218 C2.44067797,10.436957 2.9870339,10.9832819 3.66101695,10.9832819 L4.06779661,10.9832819 L4.06779661,11.3900384 C4.06779661,11.6146697 4.2499322,11.796795 4.47457627,11.796795 L4.88135593,11.796795 L4.88135593,13.8305778 C4.88135593,14.5045226 5.42771186,15.0508475 6.10169492,15.0508475 C6.77567797,15.0508475 7.3220339,14.5045226 7.3220339,13.8305778 L7.3220339,11.796795 L7.67918644,11.796795 L12.511322,13.004862 C12.7292542,13.059469 12.9501864,12.9270698 13.0047458,12.7091499 C13.0128305,12.6768128 13.0169492,12.6436113 13.0169492,12.6103081 L13.0169492,6.91571627 C13.0169492,6.79043525 12.9591356,6.67222162 12.860339,6.5951921 Z M4.06779661,10.1697687 L3.66101695,10.1697687 C3.43637288,10.1697687 3.25423729,9.98764349 3.25423729,9.76301218 C3.25423729,9.53838087 3.43637288,9.35625562 3.66101695,9.35625562 L4.06779661,9.35625562 L4.06779661,10.1697687 Z M6.50847458,13.8305778 C6.50847458,14.0552091 6.32633898,14.2373343 6.10169492,14.2373343 C5.87705085,14.2373343 5.69491525,14.0552091 5.69491525,13.8305778 L5.69491525,11.796795 L6.50847458,11.796795 L6.50847458,13.8305778 Z M7.3220339,10.9832819 L4.88135593,10.9832819 L4.88135593,8.54274251 L7.3220339,8.54274251 L7.3220339,10.9832819 Z M12.2033898,12.0892529 L8.13559322,11.0723615 L8.13559322,8.45366282 L12.2033898,7.43677142 L12.2033898,12.0892529 Z" id="Shape" fill="#4B4C4C" fill-rule="nonzero"></path>
                                <path d="M23.6,0 L9.2,0 C8.9791,0 8.8,0.1791 8.8,0.4 L8.8,4 L0.4,4 C0.1791,4 0,4.1791 0,4.4 L0,23.6 C0,23.8209 0.1791,24 0.4,24 L14.8,24 C15.0209,24 15.2,23.8209 15.2,23.6 L15.2,20 L23.6,20 C23.8209,20 24,19.8209 24,19.6 L24,0.4 C24,0.1791 23.8209,0 23.6,0 Z M9.6,1.1772 L13.552,4 L9.6,4 L9.6,1.1772 Z M14.4,23.2 L0.8,23.2 L0.8,4.8 L14.4,4.8 L14.4,23.2 Z M23.2,19.2 L15.2,19.2 L15.2,4.4 C15.19855,4.2717 15.1345,4.1522 15.0284,4.08 L15.0324,4.0744 L10.448,0.8 L23.2,0.8 L23.2,19.2 Z" id="Shape" fill="#4B4C4C" fill-rule="nonzero"></path>
                                <path d="M21.559322,2.03389831 L16.6779661,2.03389831 C16.453322,2.03389831 16.2711864,2.2160339 16.2711864,2.44067797 L16.2711864,4.88135593 C16.2711864,5.106 16.453322,5.28813559 16.6779661,5.28813559 L21.559322,5.28813559 C21.7839661,5.28813559 21.9661017,5.106 21.9661017,4.88135593 L21.9661017,2.44067797 C21.9661017,2.2160339 21.7839661,2.03389831 21.559322,2.03389831 Z M21.1525424,4.47457627 L17.0847458,4.47457627 L17.0847458,2.84745763 L21.1525424,2.84745763 L21.1525424,4.47457627 Z" id="Shape" fill="#4B4C4C" fill-rule="nonzero"></path>
                                <path d="M21.559322,11.3898305 L16.6779661,11.3898305 C16.453322,11.3898305 16.2711864,11.5719661 16.2711864,11.7966102 L16.2711864,14.2372881 C16.2711864,14.4619322 16.453322,14.6440678 16.6779661,14.6440678 L21.559322,14.6440678 C21.7839661,14.6440678 21.9661017,14.4619322 21.9661017,14.2372881 L21.9661017,11.7966102 C21.9661017,11.5719661 21.7839661,11.3898305 21.559322,11.3898305 Z M21.1525424,13.8305085 L17.0847458,13.8305085 L17.0847458,12.2033898 L21.1525424,12.2033898 L21.1525424,13.8305085 Z" id="Shape" fill="#4B4C4C" fill-rule="nonzero"></path>
                                <path d="M5.69491525,17.8983051 L2.44067797,17.8983051 C2.2160339,17.8983051 2.03389831,18.0804407 2.03389831,18.3050847 L2.03389831,21.559322 C2.03389831,21.7839661 2.2160339,21.9661017 2.44067797,21.9661017 L5.69491525,21.9661017 C5.91955932,21.9661017 6.10169492,21.7839661 6.10169492,21.559322 L6.10169492,18.3050847 C6.10169492,18.0804407 5.91955932,17.8983051 5.69491525,17.8983051 Z M5.28813559,21.1525424 L2.84745763,21.1525424 L2.84745763,18.7118644 L5.28813559,18.7118644 L5.28813559,21.1525424 Z" id="Shape" fill="#4B4C4C" fill-rule="nonzero"></path>
                                <rect id="Rectangle" fill="#4B4C4C" fill-rule="nonzero" x="10.1694915" y="17.8983051" width="3.25423729" height="1"></rect>
                                <rect id="Rectangle" fill="#4B4C4C" fill-rule="nonzero" x="7.3220339" y="19.5254237" width="6.10169492" height="1"></rect>
                                <rect id="Rectangle" fill="#4B4C4C" fill-rule="nonzero" x="7.3220339" y="21.1525424" width="4.88135593" height="1"></rect>
                                <rect id="Rectangle" fill="#4B4C4C" fill-rule="nonzero" x="19.1186441" y="6.10169492" width="2.84745763" height="1"></rect>
                                <rect id="Rectangle" fill="#4B4C4C" fill-rule="nonzero" x="16.2711864" y="7.72881356" width="5.69491525" height="1"></rect>
                                <rect id="Rectangle" fill="#4B4C4C" fill-rule="nonzero" x="16.2711864" y="9.3559322" width="4.47457627" height="1"></rect>
                                <rect id="Rectangle" fill="#4B4C4C" fill-rule="nonzero" x="19.1186441" y="15.4576271" width="2.84745763" height="1"></rect>
                                <rect id="Rectangle" fill="#4B4C4C" fill-rule="nonzero" x="16.2711864" y="17.0847458" width="5.69491525" height="1"></rect>
                                <rect id="Rectangle" fill="#4B4C4C" fill-rule="nonzero" x="8.54237288" y="17.8983051" width="1" height="1"></rect>
                                <rect id="Rectangle" fill="#4B4C4C" fill-rule="nonzero" x="17.4915254" y="15.4576271" width="1" height="1"></rect>
                                <rect id="Rectangle" fill="#4B4C4C" fill-rule="nonzero" x="17.4915254" y="6.10169492" width="1" height="1"></rect>
                            </g>
                            <g id="tshirt" transform="translate(16.996173, 0.000000)" fill-rule="nonzero">
                                <path d="M24.7929474,16.8152228 L5.7578184,16.8152228 L0.675396448,13.910907 C0.52772491,13.8265233 0.471425545,13.6416889 0.546926782,13.4893149 L5.01880759,4.46757018 C5.07406195,4.35608176 5.15896819,4.26196646 5.26425192,4.19554366 L10.771205,0.720200815 C11.224539,0.434132114 11.7983746,0.41172993 12.2688857,0.668603949 C14.4827832,1.87740749 16.5085153,1.89327843 18.3518297,0.752922372 C18.8335746,0.454901485 19.4452261,0.465678046 19.9226604,0.770426119 L25.2886691,4.1957396 C25.3925813,4.26203178 25.4763772,4.35549395 25.5311744,4.46593737 L30.0039043,13.4893802 C30.0794055,13.6417542 30.0231062,13.8265886 29.8754346,13.9109723 L24.7929474,16.8152228 Z" id="Path" fill="#F5F5F5"></path>
                                <path d="M9.8374977,1.30938478 L5.26418661,4.19554366 C5.15896819,4.26196646 5.07406195,4.35608176 5.01874227,4.46757018 L0.546926782,13.4893149 C0.471425545,13.6416889 0.52772491,13.8265233 0.675396448,13.910907 L5.75788371,16.8151575 L9.8374977,16.8151575 L9.8374977,1.30938478 L9.8374977,1.30938478 Z" id="Path" fill="#F5F5F5"></path>
                                <path d="M19.9226604,0.770426119 C19.4452261,0.465612733 18.8335093,0.454901485 18.3518297,0.752922372 C16.5085153,1.89327843 14.4827832,1.87747281 12.2688857,0.668603949 C11.7984399,0.41172993 11.224539,0.434066801 10.771205,0.720200815 L5.26418661,4.19554366 L5.80321058,11.0212866 L5.80321058,16.8151575 L5.80321058,32.3797767 C5.80321058,32.5419476 5.9346193,32.6733563 6.09679021,32.6733563 L24.4539755,32.6733563 C24.6160811,32.6733563 24.7475552,32.5419476 24.7475552,32.3797767 L24.7475552,16.8151575 L24.7475552,11.0212866 L25.2886691,4.19567429 L19.9226604,0.770426119 Z" id="Path" fill="#FFFFFF"></path>
                                <path d="M20.1769219,29.1349216 C13.7806739,29.1349216 8.59551542,23.9497631 8.59551542,17.5535151 L8.59551542,13.2767227 L8.59551542,7.48285185 L8.19018611,2.34902898 L5.26418661,4.19554366 L5.80321058,11.0212866 L5.80321058,16.8151575 L5.80321058,32.6733563 L24.7475552,32.6733563 L24.7475552,29.1349216 L20.1769219,29.1349216 Z" id="Path" fill="#F5F5F5"></path>
                                <path d="M11.5420884,0.489713042 C11.7915821,0.485794293 12.042382,0.545228657 12.2690164,0.668669261 C14.4824566,1.87760343 16.50845,1.89327843 18.3515684,0.752922372 C18.5507715,0.629481768 18.7721809,0.55894428 18.997509,0.540656783 L19.0059996,0.635359892 C18.9380746,2.63718768 17.2941593,4.23930303 15.2753502,4.23930303 C14.2584348,4.23930303 13.3362224,3.83240622 12.6628507,3.17275009 C11.990132,2.51309395 11.5656008,1.60067848 11.5433946,0.588988025 L11.5420884,0.489713042 Z" id="Path" fill="#F5F5F5"></path>
                                <path d="M19.9223338,0.770556744 L20.7178399,1.27803478 C20.34164,3.94474371 18.0439466,6.00274023 15.2753502,6.00274023 C12.5172038,6.00274023 10.227348,3.9604187 9.83743239,1.30938478 L10.771401,0.720266128 C11.0065259,0.572006778 11.273654,0.494284916 11.5420884,0.489713042 L11.5433946,0.588988025 C11.5656008,1.60067848 11.990132,2.51309395 12.6628507,3.17275009 C13.3362224,3.83240622 14.2584348,4.23930303 15.2753502,4.23930303 C17.2941593,4.23930303 18.9380746,2.63718768 19.0059996,0.635359892 L18.997509,0.540656783 C19.3162339,0.513878663 19.6421432,0.591600525 19.9223338,0.770556744 L19.9223338,0.770556744 Z" id="Path" fill="#32C5FF"></path>
                                <path d="M30.4427389,13.271759 L25.9700743,4.24838147 C25.8757631,4.05812619 25.7312919,3.8971309 25.5522703,3.78283405 L20.1861963,0.357520564 C19.5504445,-0.0483312418 18.7292053,-0.0566259279 18.0941066,0.336359318 C16.3869688,1.39246226 14.5582844,1.36058977 12.5036188,0.238651834 C11.8794927,-0.102148733 11.1155325,-0.076415612 10.5098245,0.305858386 L9.58428119,0.889947974 C9.58317087,0.890601099 9.58219119,0.891319536 9.58108087,0.891972661 L5.00274071,3.78126655 C4.82136793,3.89575934 4.67513327,4.05786494 4.57990766,4.25001428 L0.108026857,13.271759 C-0.082424361,13.6559271 0.0600874898,14.1234992 0.432303364,14.3362219 L5.31336691,17.1253918 L5.31336691,32.379842 C5.31336691,32.8118188 5.66481341,33.1632653 6.09679021,33.1632653 L24.4539755,33.1632653 C24.8859523,33.1632653 25.2373988,32.8118188 25.2373988,32.379842 L25.2373988,27.1504016 C25.2373988,26.8798773 25.0180795,26.660558 24.7475552,26.660558 C24.4770308,26.660558 24.2577115,26.8798773 24.2577115,27.1504016 L24.2577115,32.183578 L6.29305424,32.183578 L6.29305424,11.0212866 C6.29305424,10.7507622 6.07373491,10.5314429 5.80321058,10.5314429 C5.53268625,10.5314429 5.31336691,10.7507622 5.31336691,11.0212866 L5.31336691,15.9970532 L1.0563642,13.5644896 L5.45770751,4.68506077 C5.47299063,4.65416796 5.49650313,4.62810828 5.5256325,4.60975547 L9.50518776,2.09829433 C9.72953616,2.90888763 10.1244155,3.66781875 10.6684685,4.3233602 C10.7653269,4.44013893 10.904965,4.50035705 11.0456481,4.50035705 C11.1558956,4.50035705 11.2667962,4.46339018 11.3582337,4.38743175 C11.5664499,4.21461491 11.5951221,3.90581746 11.4223706,3.69766656 C10.9028097,3.07158104 10.5454851,2.33354992 10.3781545,1.54738349 L11.0325856,1.13434731 C11.0529631,1.12148075 11.0737978,1.10952856 11.0948284,1.09829481 C11.2232981,2.01665372 11.6478293,2.86395264 12.320352,3.52275971 C13.1142906,4.30056614 14.163797,4.72895076 15.2754155,4.72895076 C16.3779557,4.72895076 17.4212574,4.30657489 18.213106,3.53967565 C18.8979727,2.87636201 19.3309292,2.01711091 19.4584192,1.08523232 C19.5279117,1.11011637 19.5953795,1.14257668 19.6591245,1.18326636 L20.1786853,1.51492318 C19.7057576,3.81444529 17.6511573,5.51263531 15.2754155,5.51263531 C14.4059757,5.51263531 13.5479002,5.2840416 12.7939981,4.85167293 C12.5592651,4.71706389 12.2599379,4.798182 12.1253942,5.03284977 C11.9907852,5.26751754 12.0719686,5.56690999 12.306571,5.70145372 C13.2086671,6.21879394 14.2352488,6.49225734 15.2754155,6.49225734 C17.9902598,6.49225734 20.3543759,4.63718671 21.0521746,2.07243059 L25.0251333,4.60844922 C25.0538707,4.62686734 25.077122,4.65273108 25.0922745,4.68329733 L29.4944016,13.5643589 L25.2373988,15.9969226 L25.2373988,11.0211559 C25.2373988,10.7506316 25.0180795,10.5313123 24.7475552,10.5313123 C24.4770308,10.5313123 24.2577115,10.7506316 24.2577115,11.0211559 L24.2577115,25.191027 C24.2577115,25.4615513 24.4770308,25.6808706 24.7475552,25.6808706 C25.0180795,25.6808706 25.2373988,25.4615513 25.2373988,25.191027 L25.2373988,17.1253918 L30.1184624,14.3362219 C30.4906783,14.1234992 30.6331901,13.6559271 30.4427389,13.271759 Z M15.2753502,3.74926343 C14.4216507,3.74926343 13.6156293,3.42028442 13.0058719,2.8229364 C12.5307888,2.35745429 12.216897,1.76964189 12.0927379,1.1295795 C14.3575138,2.34726554 16.4870928,2.39749084 18.4267431,1.27849197 C18.0825463,2.70674548 16.8058178,3.74926343 15.2753502,3.74926343 L15.2753502,3.74926343 Z" id="Shape" fill="#4B4C4C"></path>
                            </g>
                            <g id="mug" transform="translate(48.000000, 8.000000)" fill-rule="nonzero">
                                <g id="Group" transform="translate(0.392857, 0.392857)">
                                    <g id="Path">
                                        <path d="M8.7263507,1.20762891 L6.90098651,1.20762891 L6.90098651,2.85137363 L7.43542785,2.86842773 C7.43542785,2.53079036 7.68270035,2.24359679 8.01778726,2.19207523 L8.58142933,2.10538884 C8.94312795,2.04976754 9.31102325,2.19913356 9.51591648,2.50114117 C9.61858592,2.65247253 9.67853655,2.83491124 9.67853655,3.03127642 L9.67853655,4.89180051 C9.67853655,5.8624683 9.02311165,6.68070583 8.12894528,6.93157227 C7.82303788,7.01739222 7.50766571,6.82704987 7.43544907,6.51882925 L6.90098651,6.52223161 L6.90098651,7.88622147 L7.55070284,7.88622147 C9.21143092,7.88622147 10.5576993,6.54556213 10.5576993,4.89180051 L10.5576993,3.03127642 C10.5576993,2.02411243 9.73776566,1.20762891 8.7263507,1.20762891 L8.7263507,1.20762891 Z" fill="#F5F5F5"></path>
                                        <path d="M5.66141961,9.74733728 L1.82585228,9.74733728 C0.823329122,9.74733728 0.0106107318,8.93803888 0.0106107318,7.93968724 L0.0106107318,0.359953508 C0.0106107318,0.169970414 0.165272758,0.0159551986 0.356053716,0.0159551986 L7.13121817,0.0159551986 C7.32199913,0.0159551986 7.47666116,0.169970414 7.47666116,0.359953508 L7.47666116,7.93968724 C7.47666116,8.93803888 6.66394277,9.74733728 5.66141961,9.74733728 Z" fill="#FFFFFF"></path>
                                    </g>
                                    <g transform="translate(1.103516, 3.100345)" fill="#32C5FF" id="Path">
                                        <path d="M2.01400178,0.220322626 C1.8722424,0.0502465483 1.61019977,0.0502465483 1.46846161,0.220322626 L0.0155341113,1.96364469 C0.0582529175,2.11294731 0.195958995,2.22239363 0.359618922,2.22239363 L3.68262424,2.22239363 L2.01400178,0.220322626 Z"></path>
                                        <path d="M4.81782399,2.22239363 C4.98343629,2.22239363 5.12239443,2.11026345 5.16330941,1.95819245 L4.19996108,0.802296422 C4.0582017,0.632220344 3.79615907,0.632220344 3.65442091,0.802296422 L2.47087867,2.22239363 L4.81782399,2.22239363 Z"></path>
                                    </g>
                                </g>
                                <g id="Group" fill="#4B4C4C">
                                    <path d="M6.44428216,6.55456723 L1.25680288,6.55456723 C1.16865882,6.55456723 1.09723723,6.48253076 1.09723723,6.39362785 C1.09723723,6.30472494 1.16865882,6.23268848 1.25680288,6.23268848 L6.44428216,6.23268848 C6.53242623,6.23268848 6.60384781,6.30472494 6.60384781,6.39362785 C6.60384781,6.48253076 6.53242623,6.55456723 6.44428216,6.55456723 Z" id="Path"></path>
                                    <path d="M3.90067805,7.44031318 L1.25680288,7.44031318 C1.16865882,7.44031318 1.09723723,7.36827671 1.09723723,7.2793738 C1.09723723,7.19047089 1.16865882,7.11843442 1.25680288,7.11843442 L3.90067805,7.11843442 C3.98882212,7.11843442 4.0602437,7.19047089 4.0602437,7.2793738 C4.0602437,7.36827671 3.98880084,7.44031318 3.90067805,7.44031318 Z" id="Path"></path>
                                    <path d="M6.08532328,2.24858058 L2.68063909,2.24858058 C2.59249503,2.24858058 2.52107344,2.32061705 2.52107344,2.40951996 C2.52107344,2.49842287 2.59249503,2.57045933 2.68063909,2.57045933 L6.08532328,2.57045933 C6.19527465,2.57045933 6.28471651,2.66067122 6.28471651,2.77156918 L6.28471651,4.85616327 L5.5886486,4.01026591 C5.49052636,3.8909991 5.34610881,3.82261059 5.19241517,3.82258914 C5.19241517,3.82258914 5.19241517,3.82258914 5.1923939,3.82258914 C5.03872154,3.82258914 4.89428271,3.8909991 4.7961392,4.01026591 L4.33978144,4.564863 L3.39715269,3.41929652 C3.29900917,3.30000825 3.15457035,3.23161975 3.00089799,3.23161975 C2.84722563,3.23161975 2.7027868,3.30002971 2.60464329,3.41929652 L1.41636853,4.86337335 L1.41636853,2.77156918 C1.41636853,2.66067122 1.5058104,2.57045933 1.61576177,2.57045933 L1.93465904,2.57045933 C2.02280311,2.57045933 2.09422469,2.49842287 2.09422469,2.40951996 C2.09422469,2.32061705 2.02280311,2.24858058 1.93465904,2.24858058 L1.61576177,2.24858058 C1.32986268,2.24858058 1.09723723,2.48320873 1.09723723,2.77156918 L1.09723723,5.19297719 C1.09723723,5.48133764 1.32986268,5.71596579 1.61576177,5.71596579 L6.08532328,5.71596579 C6.37122237,5.71596579 6.60384781,5.48133764 6.60384781,5.19297719 L6.60384781,2.77156918 C6.60384781,2.48320873 6.37124365,2.24858058 6.08532328,2.24858058 L6.08532328,2.24858058 Z M1.45851514,5.31619238 L2.85024674,3.62486975 C2.88756383,3.57952776 2.94247569,3.5534985 3.00091926,3.5534985 C3.05936284,3.5534985 3.1142747,3.57952776 3.15159179,3.62486975 L4.1324312,4.8168726 L3.65745745,5.39408703 L1.61576177,5.39408703 C1.55185041,5.39408703 1.49502376,5.36348709 1.45851514,5.31619238 L1.45851514,5.31619238 Z M6.08532328,5.39408703 L4.07220049,5.39408703 L5.04174265,4.21583914 C5.07905974,4.17047569 5.13399287,4.14446789 5.19243645,4.14446789 C5.25085875,4.14446789 5.30577061,4.17049715 5.3430877,4.21583914 L6.24539954,5.31239421 C6.20903984,5.36183478 6.1509154,5.39408703 6.08532328,5.39408703 L6.08532328,5.39408703 Z" id="Shape"></path>
                                    <path d="M8.89746574,1.21554292 L7.80414318,1.21554292 L7.80414318,0.515714136 C7.80414318,0.234370648 7.57721955,0.00549339736 7.29827752,0.00549339736 L0.505865661,0.00549339736 C0.22692363,0.00549339736 0,0.234370648 0,0.515714136 L0,8.21235009 C0,9.31319688 0.887950928,10.2087923 1.97942252,10.2087923 L5.82472066,10.2087923 C6.88106653,10.2087923 7.74676337,9.36989046 7.80137738,8.31792632 C9.51364445,8.27361435 10.893015,6.85496594 10.893015,5.11746444 L10.893015,3.22825075 C10.893015,2.11845573 9.99780918,1.21554292 8.89746574,1.21554292 Z M7.48501188,8.21235009 C7.48501188,9.13571294 6.74020198,9.88691357 5.82472066,9.88691357 L1.97942252,9.88691357 C1.0639412,9.88691357 0.3191313,9.13571294 0.3191313,8.21235009 L0.3191313,0.515714136 C0.3191313,0.411854592 0.402913904,0.327372149 0.505865661,0.327372149 L7.29827752,0.327372149 C7.40125055,0.327372149 7.48501188,0.41187605 7.48501188,0.515714136 L7.48501188,5.52444793 C7.48501188,5.61335084 7.55643347,5.6853873 7.64457753,5.6853873 C7.7327216,5.6853873 7.80414318,5.61335084 7.80414318,5.52444793 L7.80414318,2.85680267 C7.87507543,2.68592797 8.02883289,2.56359259 8.21143982,2.53515996 L8.77651498,2.44713685 C9.08300868,2.39947734 9.38937472,2.53005282 9.55681228,2.78006678 C9.64559461,2.91257353 9.69250691,3.06754742 9.69250691,3.22827221 L9.69250691,5.11748589 C9.69250691,6.00531333 9.10149702,6.79333688 8.25524591,7.03380177 C8.08036196,7.08352131 7.89581897,7.00560519 7.80416446,6.84751981 L7.80416446,6.27685024 C7.80416446,6.18794733 7.73274287,6.11591086 7.64459881,6.11591086 C7.55645474,6.11591086 7.48503316,6.18794733 7.48503316,6.27685024 L7.48503316,8.21235009 L7.48501188,8.21235009 Z M10.5738837,5.11746444 C10.5738837,6.67651636 9.33912218,7.95004037 7.80414318,7.99572569 L7.80414318,7.28096173 C7.90871187,7.33898574 8.026833,7.37065861 8.14820927,7.37063715 C8.21237594,7.37063715 8.2774149,7.36186059 8.34179432,7.34355642 C9.32495275,7.06416567 10.0116169,6.14876396 10.0116169,5.11744298 L10.0116169,3.22822929 C10.0116169,3.00304292 9.94576951,2.7857533 9.82124447,2.59983613 C9.58500221,2.24714286 9.15583444,2.062363 8.72779426,2.12901336 L8.16271911,2.21703646 C8.03125829,2.23750795 7.90917993,2.28847209 7.80414318,2.36301921 L7.80414318,1.53742167 L8.89746574,1.53742167 C9.82184019,1.53742167 10.5738837,2.29593968 10.5738837,3.22827221 L10.5738837,5.11746444 Z" id="Shape"></path>
                                </g>
                            </g>
                        </g>
                    </g>
                </g>
            </g>
        </g>
    </g>
</svg>