<?xml version="1.0" encoding="UTF-8"?>
<svg width="88px" height="57px" viewBox="0 0 88 57" version="1.1" xmlns="http://www.w3.org/2000/svg" xmlns:xlink="http://www.w3.org/1999/xlink">
    <title>Group 19</title>
    <g id="Website" stroke="none" stroke-width="1" fill="none" fill-rule="evenodd">
        <g id="homepage" transform="translate(-539.000000, -1171.000000)">
            <g id="8-services" transform="translate(1.000000, 666.000000)">
                <g id="Group-4" transform="translate(123.000000, 487.000000)">
                    <g id="Group-17" transform="translate(400.000000, 0.000000)">
                        <g id="Group-19" transform="translate(16.000000, 19.000000)">
                            <g id="Group" fill-rule="nonzero" stroke="#4B4C4C" stroke-width="0.8">
                                <rect id="Rectangle" fill="#FFFFFF" x="1.57575758" y="0.787878788" width="1" height="52.7878788"></rect>
                                <rect id="Rectangle" fill="#FFFFFF" x="33.8787879" y="0.787878788" width="1" height="52.7878788"></rect>
                                <rect id="Rectangle" fill="#FFFFFF" x="0" y="8.66666667" width="37.030303" height="1"></rect>
                                <rect id="Rectangle" fill="#FFFFFF" x="0" y="19.6969697" width="37.030303" height="1"></rect>
                                <rect id="Rectangle" fill="#FFFFFF" x="0" y="29.9393939" width="37.030303" height="1"></rect>
                                <rect id="Rectangle" fill="#FFFFFF" x="0" y="40.1818182" width="37.030303" height="1"></rect>
                                <rect id="Rectangle" fill="#FFFFFF" x="0" y="50.4242424" width="37.030303" height="1"></rect>
                                <rect id="Rectangle" fill="#F5F6F7" x="3.15151515" y="1.57575758" width="10.2424242" height="7.09090909"></rect>
                                <rect id="Rectangle" fill="#FFFFFF" x="14.1818182" y="0" width="13.3939394" height="8.66666667"></rect>
                                <rect id="Rectangle" fill="#F5F6F7" x="3.15151515" y="41.7575758" width="11.030303" height="8.66666667"></rect>
                                <rect id="Rectangle" fill="#FFFFFF" x="14.1818182" y="43.3333333" width="10.2424242" height="7.09090909"></rect>
                                <rect id="Rectangle" fill="#FFFFFF" x="24.4242424" y="42.5454545" width="9.45454545" height="7.87878788"></rect>
                                <rect id="Rectangle" fill="#F5F6F7" x="3.93939394" y="22.8484848" width="10.2424242" height="7.09090909"></rect>
                                <rect id="Rectangle" fill="#FFFFFF" x="14.1818182" y="22.0606061" width="9.45454545" height="7.87878788"></rect>
                                <rect id="Rectangle" fill="#F5F6F7" x="21.2727273" y="31.5151515" width="11.030303" height="8.66666667"></rect>
                                <rect id="Rectangle" fill="#FFFFFF" x="14.1818182" y="32.3030303" width="7.09090909" height="7.87878788"></rect>
                                <rect id="Rectangle" fill="#FFFFFF" x="4.72727273" y="32.3030303" width="7.09090909" height="7.87878788"></rect>
                                <rect id="Rectangle" fill="#FFFFFF" x="24.4242424" y="26" width="7.09090909" height="3.93939394"></rect>
                                <rect id="Rectangle" fill="#FFFFFF" x="24.4242424" y="22.0606061" width="7.09090909" height="3.93939394"></rect>
                                <rect id="Rectangle" fill="#FFFFFF" x="3.15151515" y="14.969697" width="12.6060606" height="3.93939394"></rect>
                                <rect id="Rectangle" fill="#FFFFFF" x="3.15151515" y="11.030303" width="12.6060606" height="3.93939394"></rect>
                                <rect id="Rectangle" fill="#F5F6F7" x="15.7575758" y="11.030303" width="11.030303" height="8.66666667"></rect>
                                <rect id="Rectangle" fill="#FFFFFF" x="26.7878788" y="11.030303" width="7.09090909" height="7.87878788"></rect>
                            </g>
                            <g id="spacelabs" transform="translate(30.000000, 11.000000)">
                                <g id="Group" transform="translate(8.666667, 0.000000)">
                                    <path d="M6.16296296,1.99257087 L4.37010101,1.99257087 C3.24956229,1.99257087 2.29710438,2.90346041 2.29710438,4.09900293 L2.29710438,6.54701857 C2.29710438,7.17325513 2.57723906,7.74256109 3.02545455,8.14107527 L3.02545455,10.1905767 C3.02545455,10.7598827 3.47367003,11.2153275 4.03393939,11.2153275 L5.65872054,11.2153275 C6.2189899,11.2153275 6.66720539,10.7598827 6.66720539,10.1905767 L6.66720539,8.59652004 C7.56363636,8.36879765 8.2359596,7.57176931 8.2359596,6.54701857 L8.2359596,4.09900293 C8.2359596,2.90346041 7.28350168,1.99257087 6.16296296,1.99257087 Z" id="Path" stroke="#4B4C4C" stroke-width="0.8" fill="#FFFFFF" fill-rule="nonzero"></path>
                                    <g transform="translate(3.921886, 17.079179)" stroke-width="0.8">
                                        <rect id="Rectangle" stroke="#4B4C4C" fill="#FFFFFF" fill-rule="nonzero" x="1.84888889" y="21.3489736" width="1.56875421" height="1.93564027"></rect>
                                        <g id="Path" transform="translate(1.120539, 21.633627)">
                                            <path d="M3.19353535,1.08168133 L2.85737374,0.626236559 C2.74531987,0.512375367 2.57723906,0.45544477 2.40915825,0.569305963 C2.29710438,0.683167155 2.24107744,0.853958944 2.35313131,1.02475073 L2.40915825,1.08168133 L1.12053872,1.08168133 C0.672323232,1.08168133 0.336161616,1.42326491 0.336161616,1.87870968 L0.336161616,3.0173216 C0.336161616,3.47276637 0.672323232,3.81434995 1.12053872,3.81434995 L4.31407407,3.81434995 C4.76228956,3.81434995 5.09845118,3.47276637 5.09845118,3.0173216 L5.09845118,3.0173216 C5.09845118,1.99257087 4.25804714,1.13861193 3.19353535,1.08168133 Z" stroke="#4B4C4C" fill="#FFFFFF" fill-rule="nonzero"></path>
                                            <path d="M4.98639731,3.87128055 L0.392188552,3.87128055 C0.224107744,3.87128055 0.056026936,3.70048876 0.056026936,3.52969697 L0.056026936,3.52969697 C0.056026936,3.35890518 0.224107744,3.18811339 0.392188552,3.18811339 L4.98639731,3.18811339 C5.15447811,3.18811339 5.32255892,3.35890518 5.32255892,3.52969697 L5.32255892,3.52969697 C5.26653199,3.75741935 5.15447811,3.87128055 4.98639731,3.87128055 Z" stroke="#4B4C4C" fill="#FFFFFF" fill-rule="nonzero"></path>
                                            <line x1="3.30558923" y1="1.5940567" x2="3.58572391" y2="1.13861193" stroke="#4A4A4A" stroke-linecap="round" stroke-linejoin="round"></line>
                                            <line x1="3.75380471" y1="1.70791789" x2="3.97791246" y2="1.36633431" stroke="#4A4A4A" stroke-linecap="round" stroke-linejoin="round"></line>
                                        </g>
                                        <rect id="Rectangle" stroke="#4B4C4C" fill="#EAEAEA" fill-rule="nonzero" x="0.336161616" y="0.170791789" width="3.58572391" height="21.7474878"></rect>
                                    </g>
                                    <g transform="translate(1.120539, 17.648485)" stroke-width="0.8">
                                        <rect id="Rectangle" stroke="#4B4C4C" fill="#FFFFFF" fill-rule="nonzero" x="1.45670034" y="21.1781818" width="1.56875421" height="1.93564027"></rect>
                                        <g id="Path" transform="translate(0.560269, 21.633627)">
                                            <path d="M3.4176431,0.910889541 L3.08148148,0.45544477 C2.96942761,0.341583578 2.8013468,0.284652981 2.63326599,0.398514174 C2.52121212,0.512375367 2.46518519,0.683167155 2.57723906,0.853958944 L2.63326599,0.910889541 L1.34464646,0.910889541 C0.896430976,0.910889541 0.56026936,1.25247312 0.56026936,1.70791789 L0.56026936,2.84652981 C0.56026936,3.30197458 0.896430976,3.64355816 1.34464646,3.64355816 L4.53818182,3.64355816 C4.98639731,3.64355816 5.32255892,3.30197458 5.32255892,2.84652981 L5.32255892,2.84652981 C5.26653199,1.82177908 4.42612795,0.910889541 3.4176431,0.910889541 Z" stroke="#4B4C4C" fill="#FFFFFF" fill-rule="nonzero"></path>
                                            <path d="M5.15447811,3.70048876 L0.56026936,3.70048876 C0.392188552,3.70048876 0.224107744,3.52969697 0.224107744,3.35890518 L0.224107744,3.35890518 C0.224107744,3.18811339 0.392188552,3.0173216 0.56026936,3.0173216 L5.15447811,3.0173216 C5.32255892,3.0173216 5.49063973,3.18811339 5.49063973,3.35890518 L5.49063973,3.35890518 C5.49063973,3.52969697 5.32255892,3.70048876 5.15447811,3.70048876 Z" stroke="#4B4C4C" fill="#FFFFFF" fill-rule="nonzero"></path>
                                            <line x1="3.47367003" y1="1.42326491" x2="3.75380471" y2="0.967820137" stroke="#4A4A4A" stroke-linecap="round" stroke-linejoin="round"></line>
                                            <line x1="3.92188552" y1="1.5371261" x2="4.2020202" y2="1.19554252" stroke="#4A4A4A" stroke-linecap="round" stroke-linejoin="round"></line>
                                        </g>
                                        <rect id="Rectangle" stroke="#4B4C4C" fill="#EAEAEA" fill-rule="nonzero" x="0.504242424" y="0" width="3.58572391" height="21.7474878"></rect>
                                    </g>
                                    <path d="M11.6536027,24.3662952 L11.5975758,24.3662952 C11.0933333,24.537087 10.533064,24.252434 10.4210101,23.7969892 L6.55515152,11.0445357 C6.44309764,10.5890909 6.72323232,10.0767155 7.22747475,9.96285435 L7.28350168,9.96285435 C7.78774411,9.79206256 8.34801347,10.0767155 8.46006734,10.5321603 L12.3259259,23.2846139 C12.4940067,23.7400587 12.1578451,24.252434 11.6536027,24.3662952 Z" id="Path" stroke="#4B4C4C" stroke-width="0.8" fill="#FFFFFF" fill-rule="nonzero"></path>
                                    <line x1="4.76228956" y1="4.6113783" x2="4.76228956" y2="4.89603128" id="Path" stroke="#4A4A4A" stroke-width="0.8" stroke-linecap="round" stroke-linejoin="round"></line>
                                    <line x1="7.22747475" y1="4.6113783" x2="7.22747475" y2="4.89603128" id="Path" stroke="#4A4A4A" stroke-width="0.8" stroke-linecap="round" stroke-linejoin="round"></line>
                                    <path d="M5.26653199,6.0915738 L5.26653199,6.0915738 C5.71474747,6.43315738 6.27501684,6.43315738 6.66720539,6.0915738 L6.66720539,6.0915738" id="Path" stroke="#4A4A4A" stroke-width="0.8" stroke-linecap="round" stroke-linejoin="round"></path>
                                    <path d="M1.68080808,24.9925318 L1.62478114,24.9925318 C1.06451178,24.9925318 0.672323232,24.5940176 0.672323232,24.1385728 L0.84040404,10.8168133 C0.84040404,10.3613685 1.28861953,9.96285435 1.84888889,9.96285435 L1.90491582,9.96285435 C2.46518519,9.96285435 2.85737374,10.3613685 2.85737374,10.8168133 L2.68929293,24.1385728 C2.63326599,24.6509482 2.24107744,24.9925318 1.68080808,24.9925318 Z" id="Path" stroke="#4B4C4C" stroke-width="0.8" fill="#FFFFFF" fill-rule="nonzero"></path>
                                    <path d="M9.86074074,13.2078983 L9.0203367,10.6460215 C8.74020202,9.73513196 7.78774411,9.27968719 6.94734007,9.56434018 C6.89131313,9.56434018 6.8352862,9.62127077 6.8352862,9.62127077 C6.27501684,9.27968719 5.65872054,9.05196481 4.93037037,9.05196481 L3.92188552,9.05196481 C3.30558923,9.05196481 2.8013468,9.27968719 2.40915825,9.67820137 C2.18505051,9.56434018 1.90491582,9.50740958 1.68080808,9.50740958 C0.784377104,9.50740958 0.056026936,10.3044379 0.056026936,11.2153275 L0.112053872,13.8910655 C0.112053872,14.1757185 0.336161616,14.3465103 0.616296296,14.3465103 L1.79286195,14.3465103 L1.79286195,22.3167937 L8.4040404,22.3167937 L8.4040404,14.2326491 L9.636633,13.8341349 C9.86074074,13.7202737 9.97279461,13.4356207 9.86074074,13.2078983 Z" id="Path" stroke="#4B4C4C" stroke-width="0.8" fill="#FFFFFF" fill-rule="nonzero"></path>
                                    <path d="M6.89131313,0.853958944 C6.89131313,0.853958944 5.43461279,0.284652981 3.80983165,0.683167155 C3.80983165,0.683167155 1.96094276,0.853958944 2.07299663,2.10643206 C2.07299663,2.10643206 0.448215488,2.61880743 1.84888889,6.54701857 C1.84888889,6.54701857 2.35313131,7.05939394 2.52121212,7.00246334 L2.52121212,6.0915738 C2.52121212,5.86385142 2.57723906,5.69305963 2.74531987,5.52226784 L2.91340067,5.29454545 C2.8013468,5.18068426 2.68929293,5.06682307 2.63326599,4.89603128 L2.57723906,4.72523949 C2.46518519,4.32672532 2.68929293,3.92821114 3.08148148,3.81434995 C3.4176431,3.70048876 3.75380471,3.87128055 3.92188552,4.09900293 C4.08996633,3.87128055 4.37010101,3.35890518 4.25804714,2.56187683 C5.32255892,3.0173216 6.27501684,2.96039101 6.44309764,2.73266862 C6.44309764,2.73266862 7.6196633,3.81434995 8.2359596,3.41583578 C8.2359596,3.47276637 10.533064,1.5940567 6.89131313,0.853958944 Z" id="Path" fill="#4B4C4C" fill-rule="nonzero"></path>
                                </g>
                                <g id="Group-7" transform="translate(-0.000000, 11.000000)" fill-rule="nonzero">
                                    <rect id="Rectangle" stroke="#4B4C4C" stroke-width="0.8" fill="#FFFFFF" x="0.631304348" y="12.4275556" width="32.0817391" height="2.11898413"></rect>
                                    <rect id="Rectangle" fill="#4B4C4C" x="31.3356522" y="14.4892698" width="1.09043478" height="17.6391111"></rect>
                                    <rect id="Rectangle" fill="#4B4C4C" x="0.91826087" y="14.4892698" width="1.09043478" height="17.6391111"></rect>
                                    <g id="Group" fill="#32C5FF" stroke="#4B4C4C">
                                        <polygon id="Rectangle" stroke-width="0.799992328" transform="translate(3.458371, 3.728696) rotate(-45.000000) translate(-3.458371, -3.728696) " points="3.31957376 -0.341877903 3.58854504 -0.341592976 3.59716884 7.79927028 3.32819756 7.79898535"></polygon>
                                        <polygon id="Rectangle" stroke-width="0.799992328" transform="translate(14.067464, 3.666123) rotate(-45.000000) translate(-14.067464, -3.666123) " points="9.99688973 3.52732562 18.137753 3.53594942 18.1380379 3.8049207 9.99717466 3.7962969"></polygon>
                                        <rect id="Rectangle" stroke-width="0.8" x="3.67304348" y="4.2952381" width="10.56" height="8.13231746"></rect>
                                    </g>
                                    <path d="M20.2591304,11.5685079 L18.3652174,9.73587302 L18.3652174,9.73587302 C18.1930435,9.62133333 17.9634783,9.56406349 17.733913,9.56406349 L17.3895652,9.56406349 C16.7582609,9.56406349 16.2417391,10.0794921 16.2417391,10.7094603 L16.2417391,11.0530794 C16.2417391,11.6830476 16.7582609,12.1984762 17.3895652,12.1984762 L17.733913,12.1984762 C18.3652174,12.1984762 18.8243478,11.6830476 18.8817391,11.1103492 L19.8,12.0266667 L20.2591304,11.5685079 Z" id="Path" stroke="#4B4C4C" stroke-width="0.8" fill="#FFFFFF"></path>
                                    <path d="M17.5617391,11.3394286 L17.5617391,11.3394286 C17.2747826,11.3394286 17.1026087,11.1103492 17.1026087,10.8812698 L17.1026087,10.8812698 C17.1026087,10.6521905 17.3321739,10.4231111 17.5617391,10.4231111 L17.5617391,10.4231111 C17.7913043,10.4231111 18.0208696,10.6521905 18.0208696,10.8812698 L18.0208696,10.8812698 C17.9634783,11.1103492 17.7913043,11.3394286 17.5617391,11.3394286 Z" id="Path" stroke="#4B4C4C" stroke-width="0.8" fill="#FFFFFF"></path>
                                    <rect id="Rectangle" stroke="#4B4C4C" stroke-width="0.8" fill="#EAEAEA" x="27.6052174" y="7.38780952" width="1.03304348" height="2.97803175"></rect>
                                    <path d="M29.1547826,7.38780952 L27.0886957,7.38780952 C26.4573913,7.38780952 25.8834783,6.87238095 25.8834783,6.18514286 L25.8834783,6.12787302 C25.8834783,5.49790476 26.4,4.92520635 27.0886957,4.92520635 L29.1547826,4.92520635 C29.786087,4.92520635 30.36,5.44063492 30.36,6.12787302 L30.36,6.18514286 C30.3026087,6.87238095 29.786087,7.38780952 29.1547826,7.38780952 Z" id="Path" stroke="#4B4C4C" stroke-width="0.8" fill="#FFFFFF"></path>
                                    <rect id="Rectangle" stroke="#4B4C4C" stroke-width="0.8" fill="#FFFFFF" x="24.2765217" y="11.3394286" width="7.69043478" height="1"></rect>
                                    <rect id="Rectangle" stroke="#4B4C4C" stroke-width="0.8" fill="#FFFFFF" x="23.5878261" y="9.8504127" width="9.06782609" height="1.43174603"></rect>
                                </g>
                                <g id="Group" transform="translate(26.000000, 22.000000)" stroke="#4B4C4C" stroke-width="0.8">
                                    <path d="M3.31428571,19.3263158 L3.14285714,19.3263158 C2.62857143,19.3263158 2.22857143,18.9284211 2.22857143,18.4168421 L2.22857143,18.36 C2.22857143,17.8484211 2.62857143,17.4505263 3.14285714,17.4505263 L3.31428571,17.4505263 C3.82857143,17.4505263 4.22857143,17.8484211 4.22857143,18.36 L4.22857143,18.4168421 C4.28571429,18.9284211 3.82857143,19.3263158 3.31428571,19.3263158 Z" id="Path" fill="#EAEAEA" fill-rule="nonzero"></path>
                                    <path d="M22.7428571,19.3263158 L22.5714286,19.3263158 C22.0571429,19.3263158 21.6571429,18.9284211 21.6571429,18.4168421 L21.6571429,18.36 C21.6571429,17.8484211 22.0571429,17.4505263 22.5714286,17.4505263 L22.7428571,17.4505263 C23.2571429,17.4505263 23.6571429,17.8484211 23.6571429,18.36 L23.6571429,18.4168421 C23.7142857,18.9284211 23.2571429,19.3263158 22.7428571,19.3263158 Z" id="Path" fill="#EAEAEA" fill-rule="nonzero"></path>
                                    <path d="M4.85714286,21.2589474 L4.68571429,21.2589474 C4.17142857,21.2589474 3.77142857,20.8610526 3.77142857,20.3494737 L3.77142857,20.2926316 C3.77142857,19.7810526 4.17142857,19.3831579 4.68571429,19.3831579 L4.85714286,19.3831579 C5.37142857,19.3831579 5.77142857,19.7810526 5.77142857,20.2926316 L5.77142857,20.3494737 C5.77142857,20.8610526 5.37142857,21.2589474 4.85714286,21.2589474 Z" id="Path" fill="#EAEAEA" fill-rule="nonzero"></path>
                                    <path d="M26.4,21.2589474 L26.2285714,21.2589474 C25.7142857,21.2589474 25.3142857,20.8610526 25.3142857,20.3494737 L25.3142857,20.2926316 C25.3142857,19.7810526 25.7142857,19.3831579 26.2285714,19.3831579 L26.4,19.3831579 C26.9142857,19.3831579 27.3142857,19.7810526 27.3142857,20.2926316 L27.3142857,20.3494737 C27.3714286,20.8610526 26.9142857,21.2589474 26.4,21.2589474 Z" id="Path" fill="#EAEAEA" fill-rule="nonzero"></path>
                                    <path d="M1.6,15.8589474 L1.6,15.8589474 C1.42857143,15.8589474 1.25714286,15.9157895 1.08571429,16.0294737 L0.342857143,16.6547368 C0.0571428571,16.8821053 0.0571428571,17.28 0.342857143,17.5073684 L1.08571429,18.1326316 C1.2,18.2463158 1.42857143,18.3031579 1.6,18.3031579 L1.6,18.3031579 L24.5142857,18.3031579 L24.5142857,15.8589474 L1.6,15.8589474 L1.6,15.8589474 Z" id="Path" fill="#EAEAEA" fill-rule="nonzero"></path>
                                    <path d="M3.25714286,17.3368421 L3.25714286,17.3368421 C3.08571429,17.3368421 2.91428571,17.3936842 2.74285714,17.5073684 L2,18.1326316 C1.71428571,18.36 1.71428571,18.8147368 2,19.0421053 L2.74285714,19.6673684 C2.85714286,19.7810526 3.08571429,19.8378947 3.25714286,19.8378947 L3.25714286,19.8378947 L26.1714286,19.8378947 L26.1714286,17.28 L3.25714286,17.28 L3.25714286,17.3368421 Z" id="Path" fill="#EAEAEA" fill-rule="nonzero"></path>
                                    <polygon id="Path" fill="#EAEAEA" fill-rule="nonzero" points="29.6571429 18.9284211 24.6857143 18.9284211 21.5428571 15.1768421 26.5714286 15.1768421"></polygon>
                                    <rect id="Rectangle" fill="#EAEAEA" fill-rule="nonzero" x="24.9714286" y="3.58105263" width="1.02857143" height="12.8463158"></rect>
                                    <path d="M27.6571429,3.58105263 L23.2,3.58105263 C22.2857143,3.58105263 21.5428571,2.84210526 21.5428571,1.93263158 L21.5428571,1.81894737 C21.5428571,0.909473684 22.2857143,0.170526316 23.2,0.170526316 L27.6571429,0.170526316 C28.5714286,0.170526316 29.3142857,0.909473684 29.3142857,1.81894737 L29.3142857,1.93263158 C29.3714286,2.84210526 28.6285714,3.58105263 27.6571429,3.58105263 Z" id="Path"></path>
                                    <rect id="Rectangle" fill="#EAEAEA" fill-rule="nonzero" x="24.6857143" y="18.9284211" width="5.25714286" height="1.30736842"></rect>
                                    <rect id="Rectangle" fill="#FFFFFF" fill-rule="nonzero" x="7.10526316" y="11.0526316" width="11.8421053" height="7.89473684"></rect>
                                    <rect id="Rectangle" fill="#FFFFFF" fill-rule="nonzero" x="7.89473684" y="3.15789474" width="10.2631579" height="7.89473684"></rect>
                                </g>
                            </g>
                        </g>
                    </g>
                </g>
            </g>
        </g>
    </g>
</svg>